<?xml version="1.0" encoding="utf-8"?>
<!-- Generator: Adobe Illustrator 22.0.0, SVG Export Plug-In . SVG Version: 6.00 Build 0)  -->
<svg version="1.1" id="Layer_1" xmlns="http://www.w3.org/2000/svg" xmlns:xlink="http://www.w3.org/1999/xlink" x="0px" y="0px"
	 viewBox="0 0 23 14.1" style="enable-background:new 0 0 23 14.1;" xml:space="preserve">
<style type="text/css">
	.st0{fill:#FFFFFF;}
</style>
<g transform="translate(0,-952.36218)">
	<path class="st0" d="M23,959.4c0-0.2-0.1-0.4-0.2-0.5l-5.9-6.3c-0.3-0.3-0.7-0.3-1,0c-0.3,0.3-0.3,0.8,0,1l4.8,5.1H0.7
		c-0.4,0-0.7,0.3-0.7,0.7c0,0.4,0.3,0.7,0.7,0.7h19.8l-4.8,5.1c-0.3,0.3-0.2,0.8,0,1c0.3,0.3,0.8,0.3,1,0l5.9-6.3
		C23,959.7,23,959.6,23,959.4L23,959.4z"/>
</g>
</svg>
