<?xml version="1.0" encoding="utf-8"?>
<!-- Generator: Adobe Illustrator 22.0.0, SVG Export Plug-In . SVG Version: 6.00 Build 0)  -->
<svg version="1.1" id="Layer_1" xmlns="http://www.w3.org/2000/svg" xmlns:xlink="http://www.w3.org/1999/xlink" x="0px" y="0px"
	 viewBox="0 0 180 180" style="enable-background:new 0 0 180 180;" xml:space="preserve">
<style type="text/css">
	.st0{fill:#D7E0E5;}
	.st1{font-family:'Roboto-Regular';}
	.st2{font-size:21.6391px;}
</style>
<g>
	<g>
		<path class="st0" d="M77.8,21.1c-3,0.4-5.1,3.2-4.7,6.3c0.6,4.3,0.8,7.8,0.8,10.5c0,3.1-0.3,5.1-0.6,6.1c-0.3-0.1-0.7-0.4-1.1-0.6
			c-1.6-1-3.4-2.7-4.8-4.2c-0.7-0.7-1.3-1.4-1.7-1.8c-0.2-0.2-0.3-0.4-0.4-0.5c0-0.1-0.1-0.1-0.1-0.1c0,0,0,0,0,0
			c-1.2-1.5-3-2.2-4.8-2c-0.2,0-0.5-0.1-0.7-0.1H33.3c-0.2,0-0.5,0-0.7,0.1c-1.8-0.2-3.6,0.5-4.8,2c0,0,0,0,0,0.1
			c-0.3,0.4-2.2,2.6-4.3,4.5c-1.1,1-2.2,1.8-3.1,2.4c-0.2,0.1-0.4,0.2-0.6,0.3c-0.3-1-0.7-3-0.7-6.1c0-2.7,0.2-6.2,0.8-10.5
			c0.4-3.1-1.7-5.9-4.7-6.3c-3-0.4-5.7,1.8-6.1,4.9c-0.6,4.7-0.9,8.6-0.9,12c0,5,0.6,8.8,2.2,12.1c0.8,1.6,2,3.1,3.6,4.1
			c1.6,1,3.4,1.5,4.9,1.5c0,0,0,0,0.1,0c2.9,0,5.2-1.1,7.1-2.3c0.7-0.4,1.3-0.9,2-1.3v105.4c0,4.8,3.8,8.7,8.4,8.7
			c4.7,0,8.4-3.9,8.4-8.7V93.9h3.2v63.6c0,4.8,3.8,8.7,8.4,8.7c4.7,0,8.4-3.9,8.4-8.7V52c0.6,0.5,1.3,0.9,2,1.3
			c2,1.2,4.2,2.2,7.1,2.3c0,0,0,0,0.1,0c1.6,0,3.4-0.4,4.9-1.5c2.4-1.6,3.8-4.1,4.6-6.7c0.8-2.7,1.1-5.7,1.2-9.5
			c0-3.4-0.3-7.3-0.9-12C83.6,22.9,80.8,20.7,77.8,21.1z"/>
		<ellipse class="st0" cx="46.5" cy="14.9" rx="15.3" ry="15.9"/>
		<path class="st0" d="M7.1,19.3c0.2-0.1,0.3-0.2,0.3-0.2c0.3-0.2,0.5-0.6,0.3-0.9c-0.2-0.4-0.6-0.5-0.9-0.3l0,0
			c0,0-2.7,1.3-2.8,4.3c0,0.8,0.2,1.8,0.7,2.8c0.1,0.2,0.4,0.4,0.6,0.4c0.1,0,0.2,0,0.3-0.1c0.3-0.2,0.5-0.6,0.3-1
			c-0.4-0.8-0.6-1.5-0.6-2.1c0-1,0.5-1.8,1-2.3C6.7,19.6,6.9,19.4,7.1,19.3z"/>
		<path class="st0" d="M2.9,26.4c0.3-0.2,0.4-0.6,0.3-1c-0.8-1.4-1.1-2.6-1.1-3.7c0-1.6,0.7-2.8,1.5-3.7c0.4-0.4,0.8-0.7,1-0.9
			C4.9,16.9,5,16.8,5,16.8c0.3-0.2,0.5-0.6,0.3-1c-0.2-0.3-0.6-0.5-0.9-0.3h0c0,0-3.6,2-3.7,6.2c0,1.3,0.4,2.8,1.3,4.4
			c0.1,0.2,0.4,0.4,0.6,0.4C2.7,26.5,2.8,26.4,2.9,26.4z"/>
		<path class="st0" d="M18,19.1c0,0.4,0.2,0.7,0.6,0.8c1.7,0.2,2.4,0.8,2.9,1.6c0.4,0.7,0.5,1.6,0.5,2.1c0,0.3,0,0.4,0,0.4
			c-0.1,0.4,0.2,0.7,0.6,0.8c0,0,0.1,0,0.1,0c0.3,0,0.6-0.3,0.7-0.6c0,0,0-0.2,0-0.6c0-0.6-0.1-1.8-0.7-2.8c-0.6-1.1-1.9-2-3.9-2.2
			C18.4,18.4,18,18.7,18,19.1z"/>
		<path class="st0" d="M19.3,16.8c2.9,0.2,4.3,1.4,5.1,2.7c0.8,1.3,0.9,2.8,0.9,3.4c0,0.2,0,0.3,0,0.3c0,0.4,0.2,0.7,0.6,0.8
			c0,0,0,0,0.1,0c0.4,0,0.6-0.3,0.7-0.6v0c0,0,0-0.2,0-0.4c0-0.7-0.1-2.5-1.1-4.1c-1-1.7-2.9-3.2-6.1-3.3c-0.4,0-0.7,0.3-0.7,0.7
			C18.6,16.4,18.9,16.8,19.3,16.8z"/>
		<path class="st0" d="M84.3,19.1c0,0,0.1,0,0.3,0.2c0.6,0.4,1.7,1.3,1.7,2.9c0,0.6-0.1,1.3-0.6,2.1c-0.2,0.3,0,0.8,0.3,1
			c0.1,0.1,0.2,0.1,0.3,0.1c0.2,0,0.5-0.1,0.6-0.4c0.5-1,0.7-1.9,0.7-2.8c0-3-2.7-4.3-2.8-4.3c-0.3-0.2-0.7,0-0.9,0.3
			C83.8,18.6,84,19,84.3,19.1z"/>
		<path class="st0" d="M86.7,16.8L86.7,16.8c0,0,0.2,0.1,0.4,0.3c0.9,0.6,2.5,2.2,2.5,4.6c0,1-0.3,2.2-1.1,3.7
			c-0.2,0.3-0.1,0.8,0.3,1c0.1,0.1,0.2,0.1,0.3,0.1c0.2,0,0.5-0.1,0.6-0.4c0.9-1.6,1.3-3.1,1.3-4.4c0-4.2-3.6-6.1-3.7-6.2
			c-0.3-0.2-0.7-0.1-0.9,0.3C86.2,16.2,86.4,16.6,86.7,16.8z"/>
		<path class="st0" d="M73.1,19.9c0.4,0,0.7-0.4,0.6-0.8c0-0.4-0.4-0.7-0.7-0.6c-2,0.2-3.3,1.1-3.9,2.2c-0.7,1.1-0.7,2.2-0.7,2.8
			c0,0.3,0,0.5,0,0.6c0,0.4,0.3,0.6,0.7,0.6c0,0,0.1,0,0.1,0c0.4-0.1,0.6-0.4,0.6-0.8v0c0,0,0-0.1,0-0.4c0-0.5,0.1-1.4,0.5-2.1
			C70.7,20.7,71.5,20,73.1,19.9z"/>
		<path class="st0" d="M65.2,22.8c0,0.2,0,0.4,0,0.4c0,0.4,0.3,0.6,0.7,0.6c0,0,0,0,0.1,0c0.4,0,0.7-0.4,0.6-0.8c0,0,0-0.1,0-0.3
			c0-0.6,0.1-2.1,0.9-3.4c0.8-1.3,2.2-2.5,5.1-2.7c0.4,0,0.7-0.4,0.6-0.7c0-0.4-0.3-0.7-0.7-0.7c-3.3,0.2-5.2,1.7-6.1,3.3
			C65.3,20.4,65.2,22.1,65.2,22.8z"/>
	</g>
	<text transform="matrix(0.9676 0 0 1 31.1484 81.4473)" class="st1 st2">Name Surname</text>
</g>
</svg>
