<?xml version="1.0" encoding="utf-8"?>
<!-- Generator: Adobe Illustrator 22.0.0, SVG Export Plug-In . SVG Version: 6.00 Build 0)  -->
<svg version="1.1" id="Layer_1" xmlns="http://www.w3.org/2000/svg" xmlns:xlink="http://www.w3.org/1999/xlink" x="0px" y="0px"
	 viewBox="0 0 180 180" style="enable-background:new 0 0 180 180;" xml:space="preserve">
<style type="text/css">
	.st0{fill:#D7E0E5;}
	.st1{font-family:'Roboto-Regular';}
	.st2{font-size:22.1338px;}
</style>
<g>
	<g>
		<path class="st0" d="M56.6,28c0-0.4,0-0.8,0-1.2c0-8.5-6.5-15.3-14.5-15.3c-8,0-14.5,6.9-14.5,15.3c0,8.5,6.5,15.3,14.5,15.3
			c3.2,0,6.2-1.1,8.6-3c1.4-2.4,2.8-5.4,4.3-8.9C55.4,29.4,55.9,28.7,56.6,28z"/>
		<path class="st0" d="M66,28.9c1.4,1.9,1.8,4.6,0.8,7C62.5,45.9,58,53.2,53.1,58.1c-4.5,4.6-9.8,7.1-14.9,7.1h-0.1
			c-2.8,0-5.5-0.7-8.2-2c-2-1-3.8-2.3-5.6-4.1c-1.3-1.2-2.8-2.9-4-4.6v108.2c0,4.6,3.6,8.4,8,8.4c4.4,0,8-3.8,8-8.4v-61.4h3v61.4
			c0,4.6,3.6,8.4,8,8.4c4.4,0,8-3.8,8-8.4V70.4c0.4,0.1,0.9,0.2,1.4,0.2c0,0,0,0,0.1,0c1.5,0,2.9-0.6,3.9-1.3
			c1.8-1.4,2.6-2.9,3.4-4.7c1.2-2.7,2.1-6.1,3.1-10.9c0.9-4.8,1.8-11,2.7-18.9C69.9,32,68.3,29.6,66,28.9z"/>
		<path class="st0" d="M77.6,7c-3.2-2.3-6-0.4-6-0.4s0.6-3.4-2.7-5.6c-3.3-2.2-15.3-2.3-6.2,19.8C85.6,21,80.8,9.3,77.6,7z"/>
		<path class="st0" d="M11,11.5c-3.1,2.4-2.4,5.8-2.4,5.8s-2.8-1.7-5.9,0.8c-3.1,2.5-7.2,14.5,15.6,12.8C26.2,8.2,14.1,9,11,11.5z"
			/>
		<path class="st0" d="M20.6,52.6L20.6,52.6c0.2,0.3,1.7,2.8,4.5,5.5c1.4,1.3,3.2,2.7,5.4,3.8c2.2,1.1,4.8,1.9,7.6,1.9
			c0,0,0.1,0,0.1,0c4.6,0,9.6-2.2,14-6.7c4.6-4.6,8.9-11.5,13.4-21.8c1.2-2.7,0-6-2.6-7.2c-2.6-1.2-5.6,0-6.8,2.7
			c-4,9.5-7.9,15.2-11.1,18.4c-3.2,3.1-5.4,3.7-7,3.7c-1.1,0-2.1-0.3-3.2-0.8c-1.1-0.5-2.1-1.4-3-2.2l2,0c0.5,0.4,1.1,0.8,1.6,1
			c0.9,0.5,1.8,0.7,2.6,0.7c1.3,0,3.2-0.4,6.2-3.4c0.9-0.9,2-2.2,3.3-4H25.3c-0.1,0-0.1,0-0.2,0c-1,0-2,0.3-2.8,0.8
			c-1.6,1.1-2.5,3-2.4,4.8C19.9,50.8,20.1,51.7,20.6,52.6z"/>
	</g>
	<text transform="matrix(0.9474 0 0 1 29.9248 85.5176)" class="st1 st2">Name Surname</text>
</g>
</svg>
