<?xml version="1.0" encoding="utf-8"?>
<!-- Generator: Adobe Illustrator 22.0.0, SVG Export Plug-In . SVG Version: 6.00 Build 0)  -->
<svg version="1.1" id="Layer_1" xmlns="http://www.w3.org/2000/svg" xmlns:xlink="http://www.w3.org/1999/xlink" x="0px" y="0px"
	 viewBox="0 0 180 180" style="enable-background:new 0 0 180 180;" xml:space="preserve">
<style type="text/css">
	.st0{fill:#D7E0E5;}
	.st1{font-family:'Roboto-Regular';}
	.st2{font-size:21.8778px;}
</style>
<g>
	<g>
		<path class="st0" d="M71.2,128.7c1.2,4.2,4.8,6.9,8.8,6.9c0.9,0,1.7-0.1,2.6-0.4c4.9-1.5,7.7-6.8,6.2-11.9l-11.3-40
			c-0.7-2.4-2.2-4.4-4.3-5.6c-0.6,0.4-1.2,0.8-1.8,1.1c-6,3.4-14.1,5.6-25.3,6.7c-0.2,0-0.5,0-0.7,0c-3.8,0-7-3-7.3-6.9
			c-0.2-2,0.4-4,1.7-5.6c1.3-1.6,3-2.5,5-2.7c6.8-0.7,12.6-1.8,16.6-3.4c0.3-0.1,0.6-0.3,0.9-0.4l2.8-14.3c1.1,1.5,2.1,3.1,2.8,4.6
			c0.3,0.7,0.6,1.4,0.8,2c0.3,1,0.5,1.9,0.5,2.6c0,0.2,0,0.4,0,0.6l0,0c-0.1,0.7-0.3,1.3-0.8,2c-0.8,1.1-2.6,2.7-6.4,4.2
			c-3.8,1.5-9.3,2.8-17,3.5c-3.2,0.3-5.6,3.3-5.3,6.7c0.3,3.2,2.8,5.6,5.8,5.6c0.2,0,0.4,0,0.5,0c11.2-1.1,19-3.2,24.7-6.5
			c2.9-1.6,5.2-3.6,6.9-6c1.7-2.4,2.8-5.1,3.1-7.8c0,0,0,0,0,0c0.1-0.7,0.1-1.5,0.1-2.2c0-1.2-0.1-2.3-0.3-3.4
			c-0.5-2.6-1.4-5-2.5-7.2c-2.3-4.6-5.5-8.5-8.1-11.3c-1.6-1.7-3-3-3.8-3.8c-0.8-1-1.9-1.8-3.3-2.1l-1.4-0.3
			c-3.2,2.9-7.3,4.6-11.8,4.6c-1.2,0-2.4-0.1-3.6-0.4c-4.7-1-8.8-3.8-11.4-8c-0.4-0.6-0.8-1.3-1.1-1.9c-0.1,0-0.2,0-0.2,0
			c-2.5,0.1-10.2,1-17.6,8c-4,3.8-7.7,9.2-10.3,16.8C2.8,59.9,1.2,69.6,1.2,82c0,2,0,4,0.1,6.1c0.1,3.3,2.7,5.9,5.9,5.9
			c0.1,0,0.2,0,0.2,0c3.2-0.1,5.8-3,5.6-6.4c-0.1-1.9-0.1-3.8-0.1-5.6c0-11.3,1.5-19.5,3.6-25.4c2.7-7.6,6.2-11.4,9.3-13.7
			c-3,12.5-7.4,32.8-7.4,40.7c0,0.4,0,0.7,0.1,1.1v76.9c0,5.2,4.1,9.5,9.1,9.5c5,0,9.1-4.2,9.1-9.5v-60.7c2.3,3.5,6.7,5,10.7,3.5
			l15.4-5.9L71.2,128.7z"/>
		<rect x="52.8" y="139.7" class="st0" width="53.9" height="31.2"/>
		<ellipse class="st0" cx="49.7" cy="19.2" rx="16.5" ry="17.2"/>
	</g>
	<text transform="matrix(0.9601 0 0 1 31.6685 87.5)" class="st1 st2">Name Surname</text>
</g>
</svg>
