<?xml version="1.0" encoding="utf-8"?>
<!-- Generator: Adobe Illustrator 22.0.0, SVG Export Plug-In . SVG Version: 6.00 Build 0)  -->
<svg version="1.1" id="Layer_1" xmlns="http://www.w3.org/2000/svg" xmlns:xlink="http://www.w3.org/1999/xlink" x="0px" y="0px"
	 viewBox="0 0 1170.1 621.5" style="enable-background:new 0 0 1170.1 621.5;" xml:space="preserve">
<style type="text/css">
	.st0{fill:#363E97;}
	.st1{fill:none;stroke:#FFFFFF;stroke-miterlimit:10;}
	.st2{fill:#5E65AC;}
	.st3{font-family:'MyriadPro-Regular';}
	.st4{font-size:20px;}
	.st5{fill:#FFFFFF;}
	.st6{font-size:14.6119px;}
	.st7{fill:#EE4036;}
	.st8{font-family:'HelveticaNeueLTStd-BdCn';}
	.st9{font-size:18.7525px;}
	.st10{letter-spacing:1;}
</style>
<rect class="st0" width="1170.1" height="621.5"/>
<rect x="412.1" y="66.9" class="st1" width="629.5" height="60.4"/>
<text transform="matrix(1 0 0 1 439.1084 92.373)" class="st2 st3 st4">...type your name</text>
<text transform="matrix(1 0 0 1 439.1091 47.4287)" class="st5 st3 st4">Name</text>
<text transform="matrix(1 0 0 1 439.1086 170.4287)" class="st5 st3 st4">E-mail</text>
<text transform="matrix(1 0 0 1 439.1082 283.4287)" class="st5 st3 st4">Subject</text>
<rect x="412.6" y="180.4" class="st1" width="629" height="60"/>
<rect x="412.6" y="293.4" class="st1" width="629" height="60"/>
<text transform="matrix(1 0 0 1 439.1084 210.9064)" class="st2 st3 st4">...type your e-mail</text>
<text transform="matrix(1.3687 0 0 1 439.1084 324.6221)" class="st2 st3 st6">...type the mail subject</text>
<text transform="matrix(1 0 0 1 439.1089 392.4287)" class="st5 st3 st4">Massage</text>
<rect x="411.6" y="422.4" class="st1" width="630" height="97"/>
<rect x="412.1" y="548.9" class="st7" width="130" height="45"/>
<text transform="matrix(1 0 0 1 439.3345 576.731)" class="st5 st8 st9 st10">send</text>
<text transform="matrix(1 0 0 1 78.5444 66.4291)"><tspan x="0" y="0" class="st5 st3 st4">8 Merab Aleksidze Street, </tspan><tspan x="0" y="24" class="st5 st3 st4">Tbilisi 0160, Georgia</tspan><tspan x="0" y="72" class="st5 st3 st4">tel.: +332 293 12 23</tspan><tspan x="0" y="96" class="st5 st3 st4">fax.: +332 244 44 44</tspan><tspan x="0" y="144" class="st5 st3 st4">contact@mail.ge</tspan></text>
</svg>
