<?xml version="1.0" encoding="utf-8"?>
<!-- Generator: Adobe Illustrator 22.0.0, SVG Export Plug-In . SVG Version: 6.00 Build 0)  -->
<svg version="1.1" id="Layer_1" xmlns="http://www.w3.org/2000/svg" xmlns:xlink="http://www.w3.org/1999/xlink" x="0px" y="0px"
	 viewBox="0 0 40 39.8" style="enable-background:new 0 0 40 39.8;" xml:space="preserve">
<style type="text/css">
	.st0{fill:#EE4036;}
</style>
<path class="st0" d="M40,36.4l-9.6-9.6c0.8-1,1.4-2.2,1.9-3.4C36,14.8,32,5,23.4,1.3C21.3,0.4,19.1,0,16.8,0l0,0C7.5,0,0,7.6,0,16.9
	c0,6.8,4.1,12.9,10.3,15.5c5.8,2.4,12.1,1.4,16.8-2.2l9.5,9.5L40,36.4z M4.8,16.9c0-6.7,5.4-12.1,12.1-12.1
	c6.7,0,12.1,5.4,12.1,12.1s-5.4,12.1-12.1,12.1C10.2,28.9,4.8,23.5,4.8,16.9z"/>
</svg>
