<?xml version="1.0" encoding="utf-8"?>
<!-- Generator: Adobe Illustrator 22.0.0, SVG Export Plug-In . SVG Version: 6.00 Build 0)  -->
<svg version="1.1" id="Layer_1" xmlns="http://www.w3.org/2000/svg" xmlns:xlink="http://www.w3.org/1999/xlink" x="0px" y="0px"
	 viewBox="0 0 199.8 22" style="enable-background:new 0 0 199.8 22;" xml:space="preserve">
<style type="text/css">
	.st0{fill:#4A62AC;}
	.st1{fill:#FFFFFF;}
	.st2{font-family:'Helvetica-Bold';}
	.st3{font-size:11.8462px;}
	.st4{fill:#F1F1F2;stroke:#808184;stroke-miterlimit:10;}
	.st5{fill:#DA4536;}
	.st6{fill:#404041;}
	.st7{fill:#5FA8DC;}
	.st8{enable-background:new    ;}
</style>
<g>
	<g>
		<g>
			<rect y="0.5" class="st0" width="60.3" height="21"/>
			<text transform="matrix(1 0 0 1 21.5372 15.3048)" class="st1 st2 st3">Share</text>
			<path class="st1" d="M17.5,15.3c0,0.8-0.3,1.4-0.8,1.9S15.5,18,14.8,18h-1.8v-5.8h1.9l0.3-2.1h-2.2V8.8c0-0.3,0.1-0.6,0.3-0.8
				c0.2-0.2,0.5-0.3,0.9-0.3h1.2v-2c-0.6-0.1-1.2-0.1-1.7-0.1c-0.9,0-1.6,0.3-2,0.8c-0.5,0.5-0.8,1.2-0.8,2.2v1.6H8.7v2.1h2.1v5.8
				H5.7C5,18,4.3,17.7,3.8,17.2S3,16,3,15.3v-9c0-0.8,0.3-1.4,0.8-1.9S5,3.5,5.7,3.5h9.1c0.7,0,1.3,0.3,1.9,0.8s0.8,1.2,0.8,1.9
				V15.3L17.5,15.3z"/>
		</g>
	</g>
	<g>
		<path class="st4" d="M124.4,19.4c0,1.1-0.9,2.1-1.9,2.1H68.8c-1.1,0-1.9-0.9-1.9-2.1V2.6c0-1.1,0.9-2.1,1.9-2.1h53.7
			c1.1,0,1.9,0.9,1.9,2.1V19.4z"/>
		<g>
			<polygon class="st5" points="88.8,8.6 87.1,8.6 87.1,10.4 85.4,10.4 85.4,12.1 87.1,12.1 87.1,13.8 88.8,13.8 88.8,12.1 
				90.5,12.1 90.5,10.4 88.8,10.4 			"/>
			<path class="st5" d="M77.1,10.4v2.4h3.4c-0.3,1.5-1.5,2.5-3.4,2.5c-2,0-3.7-1.7-3.7-3.8s1.6-3.8,3.7-3.8c0.9,0,1.8,0.3,2.4,0.9
				l1.8-1.8c-1.1-1-2.5-1.6-4.2-1.6c-3.4,0-6.2,2.8-6.2,6.2s2.8,6.2,6.2,6.2c3.6,0,6-2.5,6-6.1c0-0.5-0.1-0.9-0.1-1.3H77.1z"/>
		</g>
		<g>
			<path class="st6" d="M94.7,12.8l1.4-0.2c0.1,0.3,0.2,0.5,0.4,0.6c0.2,0.1,0.4,0.2,0.8,0.2c0.4,0,0.6-0.1,0.8-0.2
				c0.1-0.1,0.2-0.2,0.2-0.4c0-0.1,0-0.2-0.1-0.3c-0.1-0.1-0.2-0.1-0.5-0.2c-1.1-0.2-1.8-0.5-2.1-0.7c-0.4-0.3-0.6-0.7-0.6-1.2
				c0-0.5,0.2-0.8,0.5-1.1C95.8,9.1,96.4,9,97.1,9c0.7,0,1.2,0.1,1.6,0.3c0.3,0.2,0.6,0.6,0.7,1l-1.3,0.2c-0.1-0.2-0.2-0.4-0.3-0.5
				C97.7,10,97.4,10,97.2,10c-0.4,0-0.6,0.1-0.8,0.2c-0.1,0.1-0.2,0.2-0.2,0.3c0,0.1,0,0.2,0.1,0.3c0.1,0.1,0.6,0.2,1.3,0.4
				c0.7,0.2,1.2,0.4,1.5,0.6c0.3,0.2,0.4,0.6,0.4,1c0,0.5-0.2,0.9-0.6,1.2c-0.4,0.3-1,0.5-1.8,0.5c-0.7,0-1.3-0.1-1.7-0.4
				C95.1,13.7,94.9,13.3,94.7,12.8z"/>
			<path class="st6" d="M102.2,7.1v2.6c0.4-0.5,1-0.8,1.6-0.8c0.3,0,0.6,0.1,0.9,0.2c0.3,0.1,0.4,0.3,0.6,0.5
				c0.1,0.2,0.2,0.4,0.3,0.6c0,0.2,0.1,0.6,0.1,1v3.1h-1.4v-2.8c0-0.5,0-0.9-0.1-1c-0.1-0.1-0.1-0.3-0.3-0.4
				c-0.1-0.1-0.3-0.1-0.5-0.1c-0.2,0-0.4,0.1-0.6,0.2c-0.2,0.1-0.3,0.3-0.4,0.5c-0.1,0.2-0.1,0.6-0.1,1v2.6h-1.4V7.1H102.2z"/>
			<path class="st6" d="M108,10.7l-1.3-0.2c0.1-0.5,0.4-0.9,0.7-1.1c0.3-0.2,0.9-0.4,1.5-0.4c0.6,0,1.1,0.1,1.4,0.2
				c0.3,0.1,0.5,0.3,0.6,0.6c0.1,0.2,0.2,0.6,0.2,1.2l0,1.6c0,0.5,0,0.8,0.1,1c0,0.2,0.1,0.5,0.2,0.7h-1.4c0-0.1-0.1-0.2-0.1-0.4
				c0-0.1,0-0.1,0-0.2c-0.2,0.2-0.5,0.4-0.8,0.5c-0.3,0.1-0.6,0.2-0.9,0.2c-0.5,0-1-0.1-1.3-0.4c-0.3-0.3-0.5-0.7-0.5-1.1
				c0-0.3,0.1-0.6,0.2-0.8c0.1-0.2,0.3-0.4,0.6-0.5c0.3-0.1,0.6-0.2,1.1-0.3c0.6-0.1,1.1-0.2,1.3-0.3v-0.1c0-0.3-0.1-0.5-0.2-0.6
				c-0.1-0.1-0.4-0.2-0.7-0.2c-0.2,0-0.4,0-0.6,0.1S108.1,10.4,108,10.7z M109.8,11.8c-0.2,0.1-0.5,0.1-0.8,0.2
				c-0.4,0.1-0.6,0.2-0.8,0.2c-0.2,0.1-0.3,0.3-0.3,0.5c0,0.2,0.1,0.4,0.2,0.5c0.1,0.1,0.3,0.2,0.6,0.2c0.2,0,0.5-0.1,0.7-0.2
				c0.2-0.1,0.3-0.3,0.3-0.5c0-0.1,0.1-0.3,0.1-0.7V11.8z"/>
			<path class="st6" d="M113.9,14.3h-1.4V9.1h1.3v0.7c0.2-0.4,0.4-0.6,0.6-0.7C114.6,9,114.8,9,115,9c0.3,0,0.6,0.1,0.9,0.3
				l-0.4,1.2c-0.2-0.2-0.4-0.2-0.6-0.2c-0.2,0-0.4,0.1-0.5,0.2c-0.1,0.1-0.2,0.3-0.3,0.6c-0.1,0.3-0.1,0.9-0.1,1.7V14.3z"/>
			<path class="st6" d="M119.5,12.7l1.4,0.2c-0.2,0.5-0.5,0.9-0.8,1.2c-0.4,0.3-0.9,0.4-1.4,0.4c-0.9,0-1.6-0.3-2-0.9
				c-0.3-0.5-0.5-1.1-0.5-1.8c0-0.9,0.2-1.5,0.7-2c0.5-0.5,1-0.7,1.7-0.7c0.8,0,1.4,0.3,1.8,0.8c0.4,0.5,0.7,1.3,0.6,2.4h-3.5
				c0,0.4,0.1,0.7,0.3,1c0.2,0.2,0.5,0.3,0.8,0.3c0.2,0,0.4-0.1,0.5-0.2C119.3,13.1,119.4,12.9,119.5,12.7z M119.6,11.3
				c0-0.4-0.1-0.7-0.3-0.9c-0.2-0.2-0.4-0.3-0.7-0.3c-0.3,0-0.6,0.1-0.7,0.3c-0.2,0.2-0.3,0.5-0.3,0.9H119.6z"/>
		</g>
	</g>
	<g>
		<path class="st7" d="M199.8,20.3c0,0.6-0.4,1-1.1,1h-67c-0.6,0-1.1-0.4-1.1-1V1.5c0-0.6,0.4-1,1.1-1h67c0.6,0,1.1,0.4,1.1,1
			L199.8,20.3L199.8,20.3z"/>
		<g>
			<path class="st1" d="M148.8,8c-0.4,0.2-0.8,0.3-1.3,0.3c0.4-0.3,0.8-0.6,1-1.1c-0.4,0.2-0.9,0.4-1.4,0.5c-0.4-0.4-1-0.6-1.5-0.6
				c-1.2,0-2.2,0.9-2.2,2c0,0.2,0,0.3,0.1,0.5c-1.7-0.2-3.4-1-4.4-2.2c-0.2,0.3-0.2,0.6-0.2,1c0,0.7,0.4,1.3,1,1.6
				c-0.4,0-0.6-0.1-1-0.3l0,0c0,1,0.8,1.7,1.6,1.9c-0.2,0-0.4,0.1-0.5,0.1s-0.3,0-0.4,0c0.3,0.8,1.1,1.4,1.9,1.4
				c-0.6,0.5-1.6,0.8-2.6,0.8c-0.2,0-0.3,0-0.5,0c1,0.5,2.1,0.9,3.2,0.9c3.9,0,6-3,6-5.6c0-0.1,0-0.2,0-0.3
				C148,8.8,148.5,8.4,148.8,8z"/>
		</g>
		<g class="st8">
			<path class="st1" d="M160.1,5.8v1.4H157v7.9h-1.9V7.2h-3.1V5.8H160.1z"/>
			<path class="st1" d="M159.2,8.5h1.4c0.1,0,0.2,0,0.3,0.1c0.1,0.1,0.2,0.1,0.2,0.2l1,3.5c0.1,0.2,0.1,0.4,0.1,0.6
				c0,0.2,0.1,0.4,0.1,0.5c0.1-0.2,0.1-0.4,0.2-0.5c0.1-0.2,0.1-0.4,0.2-0.6l1.2-3.5c0-0.1,0.1-0.2,0.2-0.2c0.1-0.1,0.2-0.1,0.3-0.1
				h0.8c0.1,0,0.2,0,0.3,0.1c0.1,0.1,0.1,0.1,0.2,0.2l1.2,3.5c0.1,0.2,0.1,0.4,0.2,0.6c0.1,0.2,0.1,0.4,0.2,0.6
				c0-0.2,0.1-0.4,0.1-0.6c0-0.2,0.1-0.4,0.2-0.6l1.1-3.5c0-0.1,0.1-0.2,0.2-0.2c0.1-0.1,0.2-0.1,0.3-0.1h1.3l-2.3,6.6h-1.4
				c-0.2,0-0.3-0.1-0.3-0.3l-1.3-3.8c-0.1-0.3-0.2-0.5-0.2-0.8c-0.1,0.3-0.1,0.5-0.2,0.8l-1.3,3.8c-0.1,0.2-0.2,0.3-0.4,0.3h-1.3
				L159.2,8.5z"/>
			<path class="st1" d="M174.2,8.4c0.5,0,0.9,0.1,1.3,0.2c0.4,0.1,0.7,0.3,1,0.6c0.3,0.3,0.5,0.6,0.6,0.9c0.2,0.4,0.2,0.8,0.2,1.3
				c0,0.2,0,0.4-0.1,0.5S177,12,176.9,12h-4.5c0,0.3,0.1,0.6,0.2,0.9c0.1,0.2,0.2,0.5,0.4,0.6s0.4,0.3,0.6,0.4
				c0.2,0.1,0.5,0.1,0.8,0.1c0.3,0,0.5,0,0.7-0.1c0.2-0.1,0.4-0.1,0.5-0.2c0.2-0.1,0.3-0.1,0.4-0.2s0.2-0.1,0.3-0.1
				c0.2,0,0.3,0,0.3,0.2l0.5,0.6c-0.2,0.2-0.4,0.4-0.6,0.5c-0.2,0.1-0.5,0.3-0.7,0.3c-0.3,0.1-0.5,0.1-0.8,0.2c-0.3,0-0.5,0-0.8,0
				c-0.5,0-1-0.1-1.4-0.2c-0.4-0.2-0.8-0.4-1.1-0.7c-0.3-0.3-0.6-0.7-0.8-1.1c-0.2-0.4-0.3-1-0.3-1.5c0-0.5,0.1-0.9,0.2-1.3
				c0.2-0.4,0.4-0.7,0.7-1c0.3-0.3,0.7-0.5,1.1-0.7C173.1,8.5,173.6,8.4,174.2,8.4z M174.2,9.6c-0.5,0-0.9,0.1-1.2,0.4
				c-0.3,0.3-0.5,0.6-0.5,1.1h3.3c0-0.2,0-0.4-0.1-0.6c-0.1-0.2-0.2-0.3-0.3-0.5c-0.1-0.1-0.3-0.2-0.5-0.3
				C174.7,9.6,174.5,9.6,174.2,9.6z"/>
			<path class="st1" d="M181.7,8.4c0.5,0,0.9,0.1,1.3,0.2c0.4,0.1,0.7,0.3,1,0.6c0.3,0.3,0.5,0.6,0.6,0.9c0.2,0.4,0.2,0.8,0.2,1.3
				c0,0.2,0,0.4-0.1,0.5c-0.1,0.1-0.2,0.1-0.3,0.1h-4.4c0,0.3,0.1,0.6,0.2,0.9c0.1,0.2,0.2,0.5,0.4,0.6s0.4,0.3,0.6,0.4
				c0.2,0.1,0.5,0.1,0.8,0.1s0.5,0,0.7-0.1c0.2-0.1,0.4-0.1,0.5-0.2c0.2-0.1,0.3-0.1,0.4-0.2s0.2-0.1,0.3-0.1c0.2,0,0.3,0,0.3,0.2
				l0.5,0.6c-0.2,0.2-0.4,0.4-0.6,0.5c-0.2,0.1-0.5,0.3-0.7,0.3c-0.3,0.1-0.5,0.1-0.8,0.2c-0.3,0-0.5,0-0.8,0c-0.5,0-1-0.1-1.4-0.2
				c-0.4-0.2-0.8-0.4-1.1-0.7c-0.3-0.3-0.6-0.7-0.8-1.1c-0.2-0.4-0.3-1-0.3-1.5c0-0.5,0.1-0.9,0.2-1.3c0.2-0.4,0.4-0.7,0.7-1
				c0.3-0.3,0.7-0.5,1.1-0.7C180.6,8.5,181.1,8.4,181.7,8.4z M181.7,9.6c-0.5,0-0.9,0.1-1.2,0.4c-0.3,0.3-0.5,0.6-0.5,1.1h3.3
				c0-0.2,0-0.4-0.1-0.6c-0.1-0.2-0.2-0.3-0.3-0.5c-0.1-0.1-0.3-0.2-0.5-0.3C182.2,9.6,181.9,9.6,181.7,9.6z"/>
			<path class="st1" d="M188.4,15.2c-0.6,0-1.1-0.2-1.4-0.5c-0.3-0.3-0.5-0.8-0.5-1.3V9.7h-0.7c-0.1,0-0.2,0-0.2-0.1
				s-0.1-0.1-0.1-0.3V8.7l1.2-0.2l0.4-1.8c0-0.1,0.1-0.2,0.1-0.2c0.1,0,0.2-0.1,0.3-0.1h0.9v2.1h1.9v1.1h-1.9v3.6
				c0,0.2,0.1,0.4,0.2,0.5c0.1,0.1,0.3,0.2,0.5,0.2c0.1,0,0.2,0,0.3,0c0.1,0,0.1,0,0.2-0.1c0.1,0,0.1,0,0.1-0.1c0,0,0.1,0,0.1,0
				c0.1,0,0.1,0,0.1,0c0,0,0.1,0.1,0.1,0.1l0.5,0.8c-0.3,0.2-0.5,0.3-0.9,0.4C189.1,15.2,188.7,15.2,188.4,15.2z"/>
		</g>
	</g>
</g>
</svg>
