<?xml version="1.0" encoding="utf-8"?>
<!-- Generator: Adobe Illustrator 22.0.0, SVG Export Plug-In . SVG Version: 6.00 Build 0)  -->
<svg version="1.1" id="Layer_1" xmlns="http://www.w3.org/2000/svg" xmlns:xlink="http://www.w3.org/1999/xlink" x="0px" y="0px"
	 viewBox="0 0 302 302" style="enable-background:new 0 0 302 302;" xml:space="preserve">
<style type="text/css">
	.st0{fill:none;stroke:#EE4036;stroke-width:2;stroke-miterlimit:10;}
	.st1{fill:#EE4036;}
</style>
<rect x="1" y="1" class="st0" width="300" height="300"/>
<g transform="translate(0,-952.36218)">
	<path class="st1" d="M227.1,1002.8c-0.4,0.1-0.7,0.3-1,0.6l-20.9,18.6c-0.5,0.4-0.8,1.1-0.8,1.7v22.2l-4.4,4.4
		c-15.8-15-37.2-24.3-60.8-24.3c-48.8,0-88.4,39.6-88.4,88.4c0,48.8,39.6,88.4,88.4,88.4s88.4-39.6,88.4-88.4
		c0-23.6-9.3-44.9-24.3-60.8l4.4-4.4H230c0.7,0,1.3-0.3,1.7-0.8l18.6-20.9c0.8-1,0.7-2.4-0.2-3.3c-0.4-0.4-1-0.6-1.5-0.6H230v-18.6
		c0-1.3-1-2.4-2.3-2.4C227.5,1002.7,227.3,1002.8,227.1,1002.8z M225.3,1010.3v15.8c0,1.3,1,2.3,2.3,2.3h15.7l-14.5,16.3H209v-19.9
		L225.3,1010.3z M139.3,1030.7c22.3,0,42.5,8.7,57.5,22.9l-19.8,19.8c-9.9-9.1-23.2-14.8-37.7-14.8c-30.8,0-55.8,25-55.8,55.8
		c0,30.8,25,55.8,55.8,55.8s55.8-25,55.8-55.8c0-14.6-5.6-27.8-14.8-37.8l19.7-19.7c14.2,15,23,35.2,23,57.5
		c0,46.3-37.5,83.7-83.7,83.7s-83.7-37.5-83.7-83.7C55.5,1068.2,93,1030.7,139.3,1030.7z M139.3,1063.3c13.3,0,25.4,5,34.4,13.3
		l-18.2,18.2c-4.4-3.7-10.1-5.9-16.3-5.9c-14.1,0-25.6,11.5-25.6,25.6s11.5,25.6,25.6,25.6c14.1,0,25.6-11.5,25.6-25.6
		c0-6.2-2.2-11.9-6-16.4l18.2-18.2c8.3,9.1,13.4,21.2,13.4,34.5c0,28.3-22.9,51.2-51.2,51.2s-51.2-22.9-51.2-51.2
		C88.1,1086.1,111,1063.3,139.3,1063.3z M139.3,1093.5c4.9,0,9.4,1.7,13,4.6l-14.7,14.7c-0.9,0.9-0.9,2.4,0.1,3.3
		c0.9,0.9,2.4,0.9,3.3,0l14.7-14.7c2.9,3.6,4.6,8.1,4.6,13.1c0,11.6-9.3,20.9-20.9,20.9c-11.6,0-20.9-9.3-20.9-20.9
		C118.3,1102.8,127.7,1093.5,139.3,1093.5z"/>
</g>
</svg>
