<?xml version="1.0" encoding="utf-8"?>
<!-- Generator: Adobe Illustrator 22.0.0, SVG Export Plug-In . SVG Version: 6.00 Build 0)  -->
<svg version="1.1" id="Layer_1" xmlns="http://www.w3.org/2000/svg" xmlns:xlink="http://www.w3.org/1999/xlink" x="0px" y="0px"
	 viewBox="0 0 402 402" style="enable-background:new 0 0 402 402;" xml:space="preserve">
<style type="text/css">
	.st0{fill:none;stroke:#EE4036;stroke-width:2;stroke-miterlimit:10;}
	.st1{display:none;}
	.st2{display:inline;}
	.st3{fill:none;stroke:#000000;stroke-linecap:round;stroke-linejoin:round;stroke-miterlimit:10;}
	.st4{stroke:#000000;stroke-linecap:round;stroke-linejoin:round;stroke-miterlimit:10;}
	.st5{display:inline;fill:none;}
	.st6{font-family:'MyriadPro-Regular';}
	.st7{font-size:46.9074px;}
	.st8{display:inline;stroke:#000000;stroke-linecap:round;stroke-linejoin:round;stroke-miterlimit:10;}
	.st9{fill:none;}
</style>
<rect x="1" y="1" class="st0" width="400" height="400"/>
<g class="st1">
	<path class="st2" d="M218.9,166.6h-41.9c-22.6,0-22.9-22.7-22.9-22.9v-20.9c0-22.6,22.7-22.9,22.9-22.9h41.9
		c22.6,0,22.9,17.5,22.9,17.6v26.2C241.8,166.4,219.2,166.6,218.9,166.6z M177.1,103.9c-0.8,0-19,0.3-19,19v20.9c0,0.8,0.3,19,19,19
		h41.9c0.8,0,19-0.3,19-19v-26.2c0-0.6-0.3-13.7-19-13.7L177.1,103.9L177.1,103.9z"/>
	<path class="st2" d="M225.9,283.7h-55.8c-5.5,0-15.9-3.3-15.9-15.9v-76.7c0-5.5,3.3-15.9,15.9-15.9h55.8c5.5,0,15.9,3.3,15.9,15.9
		v76.7C241.8,273.3,238.5,283.7,225.9,283.7z M170.1,179.1c-11.9,0-12,11.5-12,12v76.7c0,11.9,11.5,12,12,12h55.8
		c11.9,0,12-11.5,12-12v-76.7c0-11.9-11.5-12-12-12H170.1z"/>
	<path class="st2" d="M129.7,276.7c-5.5,0-15.9-3.3-15.9-15.9v-69.8c0-12.6,10.4-15.9,15.9-15.9c12.6,0,15.9,10.4,15.9,15.9v69.8
		C145.6,273.4,135.2,276.7,129.7,276.7z M129.7,179.1c-1.2,0-12,0.4-12,12v69.8c0,11.8,11.4,12,12,12c1.2,0,12-0.4,12-12v-69.8
		C141.7,189.8,141.3,179.1,129.7,179.1z"/>
	<path class="st2" d="M266.3,276.7c-5.5,0-15.9-3.3-15.9-15.9v-69.8c0-12.6,10.4-15.9,15.9-15.9c12.6,0,15.9,10.4,15.9,15.9v69.8
		C282.2,273.4,271.8,276.7,266.3,276.7z M266.3,179.1c-1.2,0-12,0.4-12,12v69.8c0,11.6,10.7,12,12,12c1.3,0,12-0.4,12-12v-69.8
		C278.2,189.8,277.8,179.1,266.3,179.1z"/>
	<path class="st2" d="M198,102.9c-0.5,0-1-0.4-1-1V75.2c0-0.5,0.4-1,1-1c0.5,0,1,0.4,1,1v26.7C199,102.4,198.5,102.9,198,102.9z"/>
	<path class="st2" d="M198,76.2c-3.8,0-6.9-3.1-6.9-6.9c0-3.8,3.1-6.9,6.9-6.9c3.8,0,6.9,3.1,6.9,6.9
		C204.9,73.1,201.8,76.2,198,76.2z M198,64.4c-2.7,0-4.9,2.2-4.9,4.9s2.2,4.9,4.9,4.9c2.7,0,4.9-2.2,4.9-4.9S200.7,64.4,198,64.4z"
		/>
	<path class="st2" d="M225.9,299.2c-0.5,0-1-0.4-1-1v-16.5c0-0.5,0.4-1,1-1c0.5,0,1,0.4,1,1v16.5
		C226.9,298.7,226.4,299.2,225.9,299.2z"/>
	<path class="st2" d="M249,370c-12,0-21.4-16.2-21.4-36.9s9.4-36.9,21.4-36.9c12,0,21.4,16.2,21.4,36.9S261,370,249,370z M249,300.2
		c-9.5,0-17.5,15.1-17.5,33s8,33,17.5,33c9.5,0,17.5-15.1,17.5-33S258.5,300.2,249,300.2z"/>
	<ellipse class="st2" cx="249" cy="333.1" rx="5.8" ry="10.4"/>
	<path class="st2" d="M165.8,370c-12,0-21.4-16.2-21.4-36.9s9.4-36.9,21.4-36.9s21.4,16.2,21.4,36.9S177.8,370,165.8,370z
		 M165.8,300.2c-9.5,0-17.5,15.1-17.5,33s8,33,17.5,33s17.5-15.1,17.5-33S175.3,300.2,165.8,300.2z"/>
	<ellipse class="st2" cx="165.8" cy="333.1" rx="5.8" ry="10.4"/>
	<path class="st2" d="M165.9,329c-0.5,0-1-0.4-1-1v-46.2c0-0.5,0.4-1,1-1c0.5,0,1,0.4,1,1V328C166.9,328.5,166.4,329,165.9,329z"/>
	<g class="st2">
		<path d="M165.8,370h-19.5c-12,0-21.4-16.2-21.4-36.9s9.4-36.9,21.4-36.9h19.5c1.1,0,2,0.9,2,2c0,1.1-0.9,2-2,2
			c-9.5,0-17.5,15.1-17.5,33s8,33,17.5,33c1.1,0,2,0.9,2,2S166.9,370,165.8,370z M146.3,300.2c-9.5,0-17.5,15.1-17.5,33
			s8,33,17.5,33h9.7c-7-6-11.7-18.4-11.7-33c0-14.6,4.7-27,11.7-33H146.3z"/>
		<path d="M165.8,370L165.8,370c-1.1,0-2-0.9-2-2s0.9-2,2-2s2,0.9,2,2S166.9,370,165.8,370z"/>
	</g>
	<g class="st2">
		<path d="M249,370h-19.5c-12,0-21.4-16.2-21.4-36.9s9.4-36.9,21.4-36.9H249c1.1,0,2,0.9,2,2c0,1.1-0.9,2-2,2
			c-9.5,0-17.5,15.1-17.5,33s8,33,17.5,33c1.1,0,2,0.9,2,2S250.1,370,249,370z M229.5,300.2c-9.5,0-17.5,15.1-17.5,33s8,33,17.5,33
			h9.7c-7-6-11.7-18.4-11.7-33c0-14.6,4.7-27,11.7-33H229.5z"/>
		<path d="M249,370L249,370c-1.1,0-2-0.9-2-2s0.9-2,2-2s2,0.9,2,2S250.1,370,249,370z"/>
	</g>
</g>
<g class="st1">
	<path class="st2" d="M110.9,329.3c0,1.7-0.9,3.1-1.9,3.1l0,0c-1.1,0-1.9-1.4-1.9-3.1V107.4c0-1.7,0.9-3.1,1.9-3.1l0,0
		c1.1,0,1.9,1.4,1.9,3.1V329.3z"/>
	<path class="st2" d="M130.2,111.8c-1.9,0.3-3.8,0.7-5.7,1.2c-0.7-2-1.4-3.9-2.1-5.9c-0.7,2.3-1.4,4.7-2.1,7
		c-1.9,0.6-3.8,1.2-5.7,1.9c1.5,0.7,3,1.4,4.5,2.2c-0.6,2.2-1.3,4.3-1.9,6.5c1.7-1.7,3.4-3.3,5.2-4.8c1.7,0.6,3.4,1.3,5.1,2
		c-0.6-1.8-1.3-3.7-1.9-5.5C127.3,114.9,128.8,113.3,130.2,111.8z"/>
	<path class="st2" d="M191.6,117.9c-1.9-0.5-3.8-0.9-5.6-1.3c-0.7-2.3-1.4-4.6-2.1-6.9c-0.7,2-1.4,4-2,6c-1.9-0.4-3.8-0.8-5.7-1.2
		c1.5,1.5,3,3.1,4.5,4.7c-0.6,1.8-1.3,3.7-1.9,5.5c1.7-0.7,3.4-1.4,5.1-2.1c1.7,1.5,3.4,2.9,5.2,4.4c-0.6-2.1-1.3-4.2-1.9-6.4
		C188.6,119.7,190.1,118.8,191.6,117.9z"/>
	<path class="st2" d="M130,134.1c-1.9,0.3-3.8,0.7-5.7,1.2c-0.7-2-1.4-3.9-2.1-5.9c-0.7,2.3-1.4,4.7-2.1,7c-1.9,0.6-3.8,1.2-5.7,1.9
		c1.5,0.7,3,1.4,4.5,2.1c-0.6,2.2-1.3,4.4-1.9,6.5c1.7-1.7,3.4-3.3,5.1-4.8c1.7,0.6,3.4,1.3,5.1,2c-0.6-1.8-1.3-3.7-1.9-5.5
		C127,137.1,128.5,135.6,130,134.1z"/>
	<path class="st2" d="M191.9,140.2c-1.9-0.5-3.8-0.9-5.6-1.3c-0.7-2.3-1.4-4.6-2.1-6.9c-0.7,2-1.4,4-2.1,6c-1.9-0.4-3.8-0.8-5.7-1.2
		c1.5,1.5,3,3.1,4.5,4.7c-0.6,1.8-1.3,3.7-1.9,5.5c1.7-0.7,3.4-1.4,5.1-2.1c1.7,1.5,3.4,2.9,5.2,4.4c-0.6-2.1-1.3-4.2-1.9-6.4
		C188.9,141.9,190.4,141.1,191.9,140.2z"/>
	<path class="st2" d="M252.7,167.4c-18.1,0-36.3-4.5-54-8.9l-2-0.5c-0.9-0.2-1.5-1-1.5-1.9v-22.2c0-0.6,0.3-1.2,0.8-1.5
		c0.5-0.4,1.1-0.5,1.7-0.4l2,0.5c17.4,4.3,35.4,8.8,53,8.8c13.1,0,24.8-2.4,35.8-7.4c0.6-0.3,1.3-0.2,1.9,0.1c0.6,0.4,0.9,1,0.9,1.6
		v22.2c0,0.8-0.4,1.5-1.1,1.8C278.6,164.8,266.3,167.4,252.7,167.4z M199.2,154.6l0.5,0.1c17.4,4.3,35.4,8.8,53,8.8
		c12.6,0,24-2.3,34.7-6.9v-18c-10.7,4.4-22.1,6.6-34.7,6.6c-17.9,0-36-4.4-53.5-8.8L199.2,154.6L199.2,154.6z"/>
	<path class="st2" d="M252.7,232c-18.1,0-36.3-4.5-54-8.9c-17.4-4.3-35.4-8.8-53-8.8c-13.1,0-24.8,2.4-35.8,7.4
		c-0.6,0.3-1.3,0.2-1.9-0.1c-0.6-0.4-0.9-1-0.9-1.6v-43.1c0-0.8,0.4-1.5,1.1-1.8c11.5-5.2,23.8-7.8,37.4-7.8c18.1,0,36.3,4.5,54,8.9
		c17.4,4.3,35.4,8.8,53,8.8c13.1,0,24.8-2.4,35.8-7.4c0.6-0.3,1.3-0.2,1.9,0.1c0.6,0.4,0.9,1,0.9,1.6v43.1c0,0.8-0.4,1.5-1.1,1.8
		C278.6,229.5,266.3,232,252.7,232z M145.7,210.5c18.1,0,36.3,4.5,54,8.9c17.4,4.3,35.4,8.8,53,8.8c12.6,0,24-2.3,34.7-6.9v-38.9
		c-10.7,4.4-22.1,6.6-34.7,6.6c-18.1,0-36.3-4.5-54-8.9c-17.4-4.3-35.4-8.8-53-8.8c-12.6,0-24,2.3-34.7,6.9v38.9
		C121.7,212.6,133.1,210.5,145.7,210.5z"/>
	<path class="st2" d="M197.2,158.1c-0.2,0-0.3,0-0.5-0.1c-15.7-3.9-33.5-8.3-51.1-8.3c-13.1,0-24.8,2.4-35.8,7.4
		c-0.6,0.3-1.3,0.2-1.9-0.1c-0.6-0.4-0.9-1-0.9-1.6v-47.7c0-0.8,0.4-1.5,1.1-1.8c11.5-5.2,23.8-7.8,37.4-7.8c16.7,0,32.8,3.6,52,8.4
		c0.9,0.2,1.5,1,1.5,1.9v47.7c0,0.6-0.3,1.2-0.8,1.5C198.1,157.9,197.7,158.1,197.2,158.1z M145.7,145.8c16,0,31.4,3.3,49.6,7.8V110
		c-18.3-4.5-33.7-7.9-49.6-7.9c-12.6,0-24,2.3-34.7,6.9v43.4C121.7,148,133.1,145.8,145.7,145.8z"/>
	<path class="st2" d="M252.7,232c-18.1,0-36.3-4.5-54-8.9c-17.4-4.3-35.4-8.8-53-8.8c-13.1,0-24.8,2.4-35.8,7.4
		c-0.6,0.3-1.3,0.2-1.9-0.1c-0.6-0.4-0.9-1-0.9-1.6V107.7c0-0.8,0.4-1.5,1.1-1.8c11.5-5.2,23.8-7.8,37.4-7.8c18.1,0,36.3,4.5,54,8.9
		c17.4,4.3,35.4,8.8,53,8.8c13.1,0,24.8-2.4,35.8-7.4c0.6-0.3,1.3-0.2,1.9,0.1c0.6,0.4,0.9,1,0.9,1.6v112.3c0,0.8-0.4,1.5-1.1,1.8
		C278.6,229.5,266.3,232,252.7,232z M145.7,210.5c18.1,0,36.3,4.5,54,8.9c17.4,4.3,35.4,8.8,53,8.8c12.6,0,24-2.3,34.7-6.9V113.1
		c-10.7,4.4-22.1,6.6-34.7,6.6c-18.1,0-36.3-4.5-54-8.9c-17.4-4.3-35.4-8.8-53-8.8c-12.6,0-24,2.3-34.7,6.9v108.1
		C121.7,212.6,133.1,210.5,145.7,210.5z"/>
	<path class="st2" d="M161.7,111.5c-1.9-0.2-3.8-0.4-5.6-0.6c-0.7-2.2-1.4-4.4-2.1-6.6c-0.7,2.1-1.4,4.2-2.1,6.3
		c-1.9-0.1-3.8-0.2-5.7-0.2c1.5,1.2,3,2.5,4.5,3.8c-0.6,1.9-1.3,3.9-1.9,5.8c1.7-1,3.4-2,5.2-3c1.7,1.2,3.4,2.4,5.2,3.7
		c-0.6-2-1.3-4.1-1.9-6.1C158.7,113.6,160.2,112.6,161.7,111.5z"/>
	<path class="st2" d="M162,133.8c-1.9-0.2-3.8-0.4-5.7-0.6c-0.7-2.2-1.4-4.4-2.1-6.6c-0.7,2.1-1.4,4.2-2.1,6.3
		c-1.9-0.1-3.8-0.2-5.7-0.2c1.5,1.3,3,2.5,4.5,3.8c-0.6,1.9-1.3,3.9-1.9,5.8c1.7-1,3.4-2,5.2-2.9c1.7,1.2,3.4,2.4,5.1,3.7
		c-0.6-2-1.3-4.1-1.9-6.1C159,135.9,160.5,134.8,162,133.8z"/>
	<g class="st2">
		<path d="M252.7,145.2c-18.1,0-36.3-4.5-54-8.9l-2-0.5c-0.9-0.2-1.5-1-1.5-1.9v-25.5c0-0.6,0.3-1.2,0.8-1.5
			c0.5-0.4,1.1-0.5,1.7-0.4l2,0.5c17.4,4.3,35.4,8.8,53,8.8c13.1,0,24.8-2.4,35.8-7.4c0.6-0.3,1.3-0.2,1.9,0.1
			c0.6,0.4,0.9,1,0.9,1.6v25.5c0,0.8-0.4,1.5-1.1,1.8C278.6,142.6,266.3,145.2,252.7,145.2z M199.2,132.4l0.5,0.1
			c17.4,4.3,35.4,8.8,53,8.8c12.6,0,24-2.3,34.7-6.9v-21.2c-10.7,4.4-22.1,6.6-34.7,6.6c-17.9,0-36-4.4-53.5-8.8L199.2,132.4
			L199.2,132.4z"/>
	</g>
	<path class="st2" d="M252.7,232c-18.1,0-36.3-4.5-54-8.9c-17.4-4.3-35.4-8.8-53-8.8c-13.1,0-24.8,2.4-35.8,7.4
		c-0.6,0.3-1.3,0.2-1.9-0.1c-0.6-0.4-0.9-1-0.9-1.6v-20.9c0-0.8,0.4-1.5,1.1-1.8c11.5-5.2,23.8-7.8,37.4-7.8c18.1,0,36.3,4.5,54,8.9
		c17.4,4.3,35.4,8.8,53,8.8c13.1,0,24.8-2.4,35.8-7.4c0.6-0.3,1.3-0.2,1.9,0.1c0.6,0.4,0.9,1,0.9,1.6v20.9c0,0.8-0.4,1.5-1.1,1.8
		C278.6,229.5,266.3,232,252.7,232z M145.7,210.5c18.1,0,36.3,4.5,54,8.9c17.4,4.3,35.4,8.8,53,8.8c12.6,0,24-2.3,34.7-6.9v-16.7
		c-10.7,4.4-22.1,6.6-34.7,6.6c-18.1,0-36.3-4.5-54-8.9c-17.4-4.3-35.4-8.8-53-8.8c-12.6,0-24,2.3-34.7,6.9v16.7
		C121.7,212.6,133.1,210.5,145.7,210.5z"/>
</g>
<g class="st1">
	<g class="st2">
		<path d="M232.2,279.7h-68.3c-1.1,0-2-0.9-2-2V147.9c0-34.9,21-70.3,36.1-70.3s36.1,35.4,36.1,70.3v129.8
			C234.1,278.8,233.2,279.7,232.2,279.7z M165.8,275.8h64.4V147.9c0-33.6-20.4-66.4-32.2-66.4c-11.8,0-32.2,32.8-32.2,66.4
			L165.8,275.8L165.8,275.8z"/>
	</g>
	<g class="st2">
		<path d="M232.2,348h-20.5c-1.1,0-2-0.9-2-2v-13.7c0-1.1,0.9-2,2-2h13.7c0.7,0,1.4,0.4,1.7,1.1l6.8,13.7c0.3,0.6,0.3,1.3-0.1,1.9
			C233.5,347.6,232.8,348,232.2,348z M213.6,344.1H229l-4.9-9.7h-10.5V344.1z"/>
	</g>
	<g class="st2">
		<path d="M232.2,320.7c-0.5,0-0.9-0.2-1.3-0.5c-0.4-0.4-0.7-0.9-0.7-1.5V305c0-1,0.7-1.8,1.7-1.9l88.8-13.7
			c0.6-0.1,1.1,0.1,1.6,0.4c0.4,0.4,0.7,0.9,0.7,1.5V305c0,1-0.7,1.8-1.7,1.9l-88.8,13.7C232.4,320.6,232.3,320.7,232.2,320.7z
			 M234.1,306.7v9.7l84.9-13.1v-9.7L234.1,306.7z"/>
	</g>
	<g class="st2">
		<path d="M163.8,307c-0.1,0-0.2,0-0.3,0l-88.8-13.7c-1-0.1-1.7-1-1.7-1.9v-27.3c0-0.6,0.2-1.1,0.6-1.5l68-61.2l20.3-54.2
			c0.3-0.9,1.2-1.4,2.2-1.2c0.9,0.2,1.6,1,1.6,1.9v127.8h4.9c0.8,0,1.5,0.5,1.8,1.2c0.3,0.7,0.1,1.6-0.4,2.1
			c-0.1,0.1-6.3,6.5-6.3,19.1v6.8c0,0.6-0.2,1.1-0.7,1.5C164.7,306.8,164.3,307,163.8,307z M77,289.7l84.9,13.1v-4.5
			c0-8.9,2.7-15.1,4.9-18.5h-2.9c-1.1,0-2-0.9-2-2v-119l-16.7,44.6c-0.1,0.3-0.3,0.6-0.5,0.8L77,264.9V289.7z"/>
	</g>
	<g class="st2">
		<path d="M211.7,354.8h-27.3c-0.6,0-1.2-0.3-1.6-0.8c-0.4-0.5-0.5-1.2-0.3-1.8l6.8-20.5c0.1-0.3,0.3-0.6,0.5-0.8l6.8-6.8
			c0.7-0.7,2-0.7,2.8,0l6.8,6.8c0.2,0.2,0.4,0.5,0.5,0.8l6.8,20.5c0.2,0.6,0.1,1.3-0.3,1.8C212.9,354.5,212.3,354.8,211.7,354.8z
			 M187,350.9H209l-5.8-17.5l-5.1-5.1l-5.1,5.1L187,350.9z"/>
	</g>
	<g class="st2">
		<path d="M184.3,348h-20.5c-0.7,0-1.3-0.4-1.7-0.9c-0.4-0.6-0.4-1.3-0.1-1.9l6.8-13.7c0.3-0.7,1-1.1,1.7-1.1h13.7c1.1,0,2,0.9,2,2
			V346C186.3,347.1,185.4,348,184.3,348z M167,344.1h15.4v-9.7h-10.5L167,344.1z"/>
	</g>
	<g class="st2">
		<path d="M211.7,121.6h-27.3c-4.3,0-7.8-3.5-7.8-7.8c0-4.3,3.5-7.8,7.8-7.8h27.3c4.3,0,7.8,3.5,7.8,7.8
			C219.5,118.1,216,121.6,211.7,121.6z M184.3,107.9c-3.2,0-5.9,2.6-5.9,5.9c0,3.2,2.6,5.9,5.9,5.9h27.3c3.2,0,5.9-2.6,5.9-5.9
			c0-3.2-2.6-5.9-5.9-5.9H184.3z"/>
	</g>
	<g class="st2">
		<path d="M163.8,320.7c-0.1,0-0.2,0-0.3,0L74.7,307c-1-0.1-1.7-1-1.7-1.9v-13.7c0-0.6,0.2-1.1,0.7-1.5c0.4-0.4,1-0.5,1.6-0.4
			l88.8,13.7c1,0.1,1.7,1,1.7,1.9v13.7c0,0.6-0.2,1.1-0.7,1.5C164.7,320.5,164.3,320.7,163.8,320.7z M77,303.4l84.9,13.1v-9.7
			L77,293.7V303.4L77,303.4z"/>
	</g>
	<g class="st2">
		<path d="M191.2,334.3h-27.3c-1.1,0-2-0.9-2-2v-34.2c0-14.3,7.1-21.6,7.4-21.9c0.4-0.4,0.9-0.6,1.4-0.6H198c1.1,0,2,0.9,2,2
			c0,1.1-0.9,2-2,2c-2.7,0-4.9,2.2-4.9,4.9v34.1c0,2.7,2.2,4.9,4.9,4.9c0.8,0,1.5,0.5,1.8,1.2c0.3,0.7,0.1,1.6-0.4,2.1l-6.8,6.8
			C192.2,334.1,191.7,334.3,191.2,334.3z M165.8,330.4h24.6l3.8-3.8c-2.9-1.4-5-4.4-5-7.9v-34.1c0-1.8,0.5-3.5,1.5-4.9h-19.1
			c-1.5,1.8-5.8,8.1-5.8,18.5L165.8,330.4L165.8,330.4z"/>
	</g>
	<g class="st2">
		<path d="M232.2,334.3h-27.3c-0.5,0-1-0.2-1.4-0.6l-6.8-6.8c-0.6-0.6-0.7-1.4-0.4-2.1c0.3-0.7,1-1.2,1.8-1.2c2.7,0,4.9-2.2,4.9-4.9
			v-34.1c0-2.7-2.2-4.9-4.9-4.9c-1.1,0-2-0.9-2-2c0-1.1,0.9-2,2-2h27.3c0.5,0,1,0.2,1.4,0.6c0.3,0.3,7.4,7.6,7.4,21.9v34.2
			C234.1,333.4,233.2,334.3,232.2,334.3z M205.6,330.4h24.6v-32.2c0-10.5-4.3-16.7-5.8-18.5h-19.1c0.9,1.4,1.5,3.1,1.5,4.9v34.1
			c0,3.5-2,6.5-5,7.9L205.6,330.4z"/>
	</g>
	<g class="st2">
		<path d="M232.2,307c-0.5,0-0.9-0.2-1.3-0.5c-0.4-0.4-0.7-0.9-0.7-1.5v-6.8c0-12.7-6.2-19-6.3-19.1c-0.6-0.6-0.7-1.4-0.4-2.1
			c0.3-0.7,1-1.2,1.8-1.2h4.9V147.9c0-0.9,0.7-1.8,1.6-1.9c0.9-0.2,1.8,0.4,2.2,1.2l20.3,54.2l68,61.2c0.4,0.4,0.6,0.9,0.6,1.5v27.3
			c0,1-0.7,1.8-1.7,1.9L232.5,307C232.4,307,232.3,307,232.2,307z M229.2,279.7c2.1,3.5,4.9,9.6,4.9,18.5v4.5l84.9-13.1v-24.8
			L251.3,204c-0.2-0.2-0.4-0.5-0.5-0.8l-16.7-44.6v119c0,1.1-0.9,2-2,2L229.2,279.7L229.2,279.7z"/>
	</g>
</g>
<g class="st1">
	<g class="st2">
		<circle cx="198" cy="216.2" r="115.2"/>
		<path d="M198,333.4c-64.6,0-117.2-52.6-117.2-117.2c0-64.6,52.6-117.2,117.2-117.2c64.6,0,117.2,52.6,117.2,117.2
			S262.6,333.4,198,333.4z M198,103c-62.4,0-113.3,50.8-113.3,113.3c0,62.5,50.8,113.3,113.3,113.3c62.5,0,113.3-50.8,113.3-113.3
			C311.3,153.8,260.4,103,198,103z"/>
	</g>
	<path class="st2" d="M198,305.2c-1.5,0-147.4-0.2-147.4-16.4c0-3.3,4.4-5.7,14.7-7.9c16.4-3.6,47.1-6.4,84.1-7.7
		c15.6-0.5,31.9-0.8,48.7-0.8c1.5,0,147.4,0.2,147.4,16.4C345.4,305,199.5,305.2,198,305.2z M198,276.3c-16.7,0-33,0.3-48.5,0.8
		c-36.8,1.3-67.2,4.1-83.4,7.6c-10.6,2.3-11.6,4.2-11.6,4.2c2.4,4.9,54.9,12.3,143.5,12.3s141.1-7.5,143.5-12.6
		C339.1,283.7,286.6,276.3,198,276.3z"/>
	<g class="st2">
		<path d="M96.7,299.6c0,4.8-3.9,8.6-8.6,8.6c-4.8,0-8.6-3.9-8.6-8.6c0-4.8,3.9-8.6,8.6-8.6C92.8,291,96.7,294.9,96.7,299.6z"/>
		<path d="M88.1,309.2c-5.3,0-9.6-4.3-9.6-9.6c0-5.3,4.3-9.6,9.6-9.6c5.3,0,9.6,4.3,9.6,9.6C97.7,304.9,93.4,309.2,88.1,309.2z
			 M88.1,292c-4.2,0-7.6,3.4-7.6,7.6c0,4.2,3.4,7.6,7.6,7.6c4.2,0,7.6-3.4,7.6-7.6C95.7,295.4,92.3,292,88.1,292z"/>
	</g>
	<g class="st2">
		<circle cx="237.3" cy="303.5" r="12.5"/>
		<path d="M237.3,316.9c-7.4,0-13.5-6-13.5-13.5s6-13.5,13.5-13.5s13.5,6,13.5,13.5S244.7,316.9,237.3,316.9z M237.3,292
			c-6.3,0-11.5,5.2-11.5,11.5c0,6.3,5.2,11.5,11.5,11.5s11.5-5.2,11.5-11.5C248.8,297.1,243.7,292,237.3,292z"/>
	</g>
	<g class="st2">
		<path d="M316.5,299.9c0,4.9-4,8.9-8.9,8.9c-4.9,0-8.9-4-8.9-8.9c0-4.9,4-8.9,8.9-8.9C312.6,291,316.5,295,316.5,299.9z"/>
		<path d="M307.7,310.7c-6,0-10.8-4.9-10.8-10.8c0-6,4.9-10.8,10.8-10.8c6,0,10.8,4.9,10.8,10.8
			C318.5,305.9,313.6,310.7,307.7,310.7z M307.7,293c-3.8,0-6.9,3.1-6.9,6.9s3.1,6.9,6.9,6.9c3.8,0,6.9-3.1,6.9-6.9
			S311.5,293,307.7,293z"/>
	</g>
	<g class="st2">
		<path d="M287.1,289.3c16.3-19.9,26.1-45.3,26.1-73c0-63.6-51.6-115.2-115.2-115.2c-63.6,0-115.2,51.6-115.2,115.2
			c0,27.7,9.8,53.1,26.1,73"/>
		<path d="M287.1,291.2c-0.4,0-0.9-0.1-1.2-0.4c-0.8-0.7-1-1.9-0.3-2.8c16.6-20.2,25.7-45.7,25.7-71.8
			c0-62.5-50.8-113.3-113.3-113.3c-62.4,0-113.3,50.8-113.3,113.3c0,26.1,9.1,51.6,25.7,71.8c0.7,0.8,0.6,2.1-0.3,2.8
			c-0.8,0.7-2.1,0.6-2.8-0.3c-17.1-20.9-26.5-47.2-26.5-74.3c0-64.6,52.6-117.2,117.2-117.2c64.6,0,117.2,52.6,117.2,117.2
			c0,27-9.4,53.4-26.6,74.3C288.2,291,287.7,291.2,287.1,291.2z"/>
	</g>
	<g class="st2">
		<circle cx="152.1" cy="302.6" r="19"/>
		<path d="M152.1,322.6c-11,0-20-9-20-20c0-11,9-20,20-20c11,0,20,9,20,20C172.1,313.6,163.1,322.6,152.1,322.6z M152.1,284.5
			c-10,0-18.1,8.1-18.1,18.1c0,10,8.1,18.1,18.1,18.1c10,0,18.1-8.1,18.1-18.1C170.1,292.6,162,284.5,152.1,284.5z"/>
	</g>
</g>
<g class="st1">
	<g class="st2">
		<line class="st3" x1="50.4" y1="290.9" x2="348" y2="290.9"/>
		<path class="st4" d="M49.6,290.9c9.1,0,38.9-21.4,44.9-21.4c6.1,0,18-5.4,21-10.7c3-5.4,23.1-10.7,26.1-16.1
			c3-5.4,20.6,5.4,23.7,5.4c3,0,21.3,10.7,24.3,10.7c3,0,22.6-10.7,25.6-10.7c3,0,15.3,5.4,21.4,5.4s20.2,0,23.3,5.4
			c3,5.4,26.8-10.7,32.9,10.7c6.1,21.4,32.1,10.7,35.2,16.1c3,5.4,20,5.4,20,5.4"/>
		<path class="st4" d="M48.8,290.9C67,290.9,81.9,248,94,248c12.1,0,13.5-10.7,19.6-21.5c6.1-10.7,16.1-21.4,22.1-32.2
			c6.1-10.7,19.4,10.7,25.5,10.7c6.1,0,19.7,21.4,25.8,21.4c6.1,0,20.4-21.4,26.4-21.4c6.1,0,12.2,10.7,24.3,10.7s19.2,0,25.3,10.7
			c6.1,10.7,18-21.4,30.1,21.5c12.1,42.9,25.2,21.5,31.2,32.2c6.1,10.7,23.7,10.7,23.7,10.7"/>
		<path class="st4" d="M48,290.9c27.3,0,27.3-64.4,45.4-64.4c18.2,0,9.1-16.1,18.2-32.2c9.1-16.1,9.1-32.2,18.2-48.3
			c9.1-16.1,18.2,16.1,27.3,16.1c9.1,0,18.2,32.2,27.3,32.2c9.1,0,18.2-32.2,27.3-32.2c9.1,0,9.1,16.1,27.3,16.1s18.2,0,27.3,16.1
			c9.1,16.1,9.1-32.2,27.3,32.2c18.2,64.4,18.2,32.2,27.3,48.3c9.1,16.1,27.3,16.1,27.3,16.1"/>
	</g>
	<rect x="139.8" y="36.9" class="st5" width="197.3" height="67.3"/>
	<text transform="matrix(1 0 0 1 139.7646 70.2186)" class="st2 st6 st7">faire qqch</text>
</g>
<g class="st1">
	<g class="st2">
		<path d="M198,346.8c-70.2,0-127.3-58.6-127.3-130.6c0-72,57.1-130.6,127.3-130.6c0.4,0,0.9,0,1.3,0l0.8,0
			c18.1,2.6,33.2,37.3,38.8,88.6c49.9,5.8,83.7,21.2,86.3,39.6l0,0.9c0,0.5,0,1,0,1.5C325.3,288.2,268.2,346.8,198,346.8z M198,89.5
			c-68,0-123.4,56.8-123.4,126.7c0,69.9,55.3,126.7,123.4,126.7c68,0,123.4-56.8,123.4-126.7c0-0.4,0-0.9,0-1.3l0-0.7
			c-2.3-16.2-36.2-30.9-84.4-36.2c-0.9-0.1-1.6-0.8-1.7-1.7c-5.2-49.5-19.4-84.3-35.4-86.7l-0.6,0C198.8,89.5,198.4,89.5,198,89.5z"
			/>
	</g>
	<g class="st2">
		<path d="M159,258.3c-1,0-1.8-0.7-1.9-1.8c-1.4-13.1-2.1-26.6-2.1-40.3c0-3.2,0-6.3,0.1-9.4l0.1-1.8c0.1-3.1,0.2-6.2,0.4-9.3
			c0.2-3.5,0.4-6.7,0.6-9.9c4.7-60,21.5-100.1,41.9-100.1c19.2,0,35.3,35.4,41,90.3c0.1,1.1-0.7,2-1.7,2.1c-1.1,0.1-2-0.7-2.1-1.7
			c-5.3-51.1-20.6-86.8-37.1-86.8c-17.7,0-33.6,40.5-38,96.3c-0.3,3.3-0.5,6.5-0.6,9.7c-0.2,3.3-0.3,6.4-0.4,9.5l-0.1,1.8
			c-0.1,3.1-0.1,6.2-0.1,9.4c0,13.5,0.7,27,2,39.9c0.1,1.1-0.7,2-1.7,2.1C159.1,258.3,159,258.3,159,258.3z"/>
	</g>
	<path class="st8" d="M237,176.3"/>
	<g class="st2">
		<path d="M198,260.6c-13.4,0-26.6-0.7-39.3-2.1c-0.7-0.1-1.4-0.6-1.6-1.3c-0.3-0.7-0.1-1.5,0.4-2l21-21.6c0.8-0.8,2-0.8,2.8,0
			c0.8,0.8,0.8,2,0,2.8L163.2,255c14.2,1.4,29.3,1.9,44,1.6l1.7-0.1c3-0.1,6-0.2,9-0.4c0,0,0.4,0,0.4,0c3-0.2,6.1-0.4,9.1-0.6
			c54.5-4.5,94-20.9,94-39.1c0-17-34.8-32.7-84.5-38.2c-1.1-0.1-1.8-1.1-1.7-2.2c0.1-1.1,1.1-1.8,2.2-1.7c52.6,5.8,88,22.7,88,42
			c0,20.6-40,38.2-97.4,42.9c-3.3,0.3-6.4,0.5-9.6,0.7c0,0-0.4,0-0.4,0c-2.9,0.2-5.9,0.3-9,0.4l-1.7,0.1
			C204.2,260.5,201.1,260.6,198,260.6z"/>
	</g>
	<g class="st2">
		<g>
			<path d="M195.9,236.7c-5.8,0-11.5-0.3-17-0.9c-0.5-0.1-0.8-0.4-0.9-0.9c-0.6-5.7-0.9-11.6-0.9-17.4c0-1.4,0-2.7,0.1-4.1
				c0-0.2,0-0.5,0-0.8c0-1.3,0.1-2.7,0.2-4c0.1-1.5,0.2-2.9,0.3-4.3c1.8-22.4,7.9-45,17.8-45c31.7,0.1,57.4,27,57.4,60
				c0,0.3,0,0.4,0,0.5h0c0,0.3,0,0.5,0,0.8c-0.7,4.8-20.7,13.7-44,15.6c-0.1,0-0.2,0-0.2,0c-1.3,0.1-2.6,0.2-4,0.3
				c-1.2,0.1-2.3,0.1-3.4,0.2l-1.4,0C198.6,236.7,197.2,236.7,195.9,236.7z M179.9,233.9c6.5,0.7,13.4,0.9,19.9,0.8l1.3,0
				c1.1,0,2.2-0.1,3.3-0.1c1.5-0.1,2.8-0.2,4.1-0.3c0.1,0,0.1,0,0.1,0c24.7-2,41.8-11.1,42.2-13.8l0-0.4c0-0.2,0-0.5,0-0.7
				c0-31.9-24.9-57.9-55.5-58c-7.2,0-13.9,18.1-15.8,43.1c-0.1,1.4-0.2,2.8-0.3,4.2c-0.1,1.5-0.1,2.8-0.2,4.1c0,0.3,0,0.5,0,0.7
				c0,1.4-0.1,2.7-0.1,4.1C179.1,223,179.4,228.6,179.9,233.9z"/>
		</g>
	</g>
</g>
<g class="st1">
	<g class="st2">
		<path d="M229.3,112.5c0,0-0.1,0-0.1,0l-62.3-8.1c-0.5-0.1-0.9-0.5-0.9-1V89.9c0-0.3,0.1-0.6,0.3-0.7s0.5-0.3,0.8-0.2l62.3,8.1
			c0.5,0.1,0.9,0.5,0.9,1v13.5c0,0.3-0.1,0.6-0.3,0.7C229.8,112.5,229.5,112.5,229.3,112.5z M168,102.6l60.3,7.9V98.9L168,91V102.6z
			"/>
	</g>
	<g class="st2">
		<path d="M229.3,142.2c0,0-0.1,0-0.1,0l-62.3-7.6c-0.5-0.1-0.9-0.5-0.9-1v-13.5c0-0.3,0.1-0.5,0.3-0.7c0.2-0.2,0.5-0.3,0.8-0.2
			l62.3,7.6c0.5,0.1,0.9,0.5,0.9,1v13.5c0,0.3-0.1,0.5-0.3,0.7C229.8,142.1,229.5,142.2,229.3,142.2z M168,132.8l60.3,7.3v-11.5
			l-60.3-7.3V132.8z"/>
	</g>
	<g class="st2">
		<path d="M224.6,172.5c0,0-0.1,0-0.1,0l-55.3-7.4c-0.4-0.1-0.7-0.3-0.8-0.7c-1.2-4.4-1.9-9.1-2.2-14c0-0.3,0.1-0.6,0.3-0.8
			c0.2-0.2,0.5-0.3,0.8-0.3l61.1,8.1c0.3,0,0.5,0.2,0.7,0.4c0.2,0.2,0.2,0.5,0.2,0.7c-0.8,4.5-2,9-3.7,13.2
			C225.4,172.2,225,172.5,224.6,172.5z M170.1,163.2l53.9,7.2c1.4-3.6,2.4-7.3,3.1-11.1l-58.9-7.9
			C168.5,155.5,169.1,159.4,170.1,163.2z"/>
	</g>
	<g class="st2">
		<path d="M206.6,199.9c0,0-0.1,0-0.1,0l-18.9-2.4c-0.2,0-0.4-0.1-0.6-0.3c-4.6-5.2-8.2-10.1-11.1-15c-0.2-0.3-0.2-0.7,0-1
			c0.2-0.3,0.6-0.5,0.9-0.4l39.8,5c0.3,0,0.6,0.3,0.8,0.6c0.1,0.3,0.1,0.7-0.1,1c-2.8,4-6.1,8.1-10,12.4
			C207.1,199.8,206.8,199.9,206.6,199.9z M188.2,195.6l18,2.3c3.3-3.6,6.1-7,8.6-10.5l-36.2-4.6C181.1,187,184.3,191.2,188.2,195.6z
			"/>
	</g>
	<g class="st2">
		<path d="M222.4,262.2c-0.1,0-0.1,0-0.1,0l-44.9-6.6c-0.1,0-0.2-0.1-0.3-0.1c-0.3,0-0.5-0.2-0.7-0.5s0-0.7,0.2-1
			c2.7-3.8,6-7.8,10.2-12.1c0.2-0.2,0.6-0.3,0.9-0.3l24.2,3.8c0.2,0,0.4,0.1,0.6,0.3c4.7,5.3,8.3,10.2,10.9,15
			c0.2,0.3,0.2,0.7-0.1,1C223.1,262.1,222.7,262.2,222.4,262.2z M179.1,253.9l41.5,6.1c-2.4-4.1-5.5-8.2-9.5-12.7l-23.3-3.6
			C184.3,247.3,181.5,250.7,179.1,253.9z"/>
	</g>
	<g class="st2">
		<path d="M229,293.2c0,0-0.1,0-0.1,0l-62.2-8.3c-0.5-0.1-0.9-0.5-0.8-1c0.2-4.7,1-9.2,2.4-13.5c0.1-0.4,0.6-0.7,1.1-0.7l59.2,8
			c0.4,0.1,0.8,0.4,0.8,0.8c0.4,2.8,0.6,5.4,0.6,8.1v5.6c0,0.3-0.1,0.6-0.3,0.7C229.5,293.1,229.2,293.2,229,293.2z M167.9,283.1
			l60.2,8.1v-4.5c0-2.4-0.2-4.7-0.5-7.1l-57.7-7.7C168.8,275.4,168.1,279.2,167.9,283.1z"/>
	</g>
	<g class="st2">
		<path d="M228.8,324.1c-0.1,0-0.1,0-0.1,0l-62-9.6c-0.5-0.1-0.8-0.5-0.8-1V300c0-0.3,0.1-0.6,0.3-0.7c0.2-0.2,0.5-0.3,0.8-0.2
			l62.3,9.7c0.5,0.1,0.8,0.5,0.8,1l-0.3,13.5c0,0.3-0.1,0.6-0.4,0.7C229.2,324.1,229,324.1,228.8,324.1z M167.7,312.7l60.1,9.3
			l0.2-11.6l-60.3-9.4V312.7z"/>
	</g>
	<g class="st2">
		<path d="M231.2,353.8c0,0-0.1,0-0.1,0l-64.4-8.6c-0.5-0.1-0.8-0.5-0.8-1v-13.5c0-0.3,0.1-0.6,0.3-0.7c0.2-0.2,0.5-0.3,0.8-0.2
			l62.3,8.4c0.5,0.1,0.8,0.5,0.8,1v7.9c0,1.9,0.7,3.7,1.9,5.2c0.3,0.3,0.3,0.7,0.1,1.1C231.8,353.7,231.5,353.8,231.2,353.8z
			 M167.7,343.4l61.5,8.2c-0.7-1.4-1.1-3-1.1-4.6v-7.1l-60.3-8.1V343.4z"/>
	</g>
	<g class="st2">
		<path d="M157.8,357.9c-6,0-10.9-4.9-10.9-10.9v-60.4c0-33.8,21-53.4,41.4-72.4c20.1-18.9,39.1-36.6,39.1-68.4V85.5
			c0-6,4.9-10.9,10.9-10.9c6,0,10.9,4.9,10.9,10.9v60.4c0,41.3-24.4,64.1-46,84.3c-18.5,17.3-34.5,32.2-34.5,56.5V347
			C168.7,353,163.8,357.9,157.8,357.9z M238.2,78.5c-3.8,0-7,3.1-7,7v60.4c0,33.5-19.6,51.8-40.3,71.2
			c-19.8,18.5-40.2,37.6-40.2,69.6V347c0,3.8,3.1,7,7,7c3.9,0,7-3.1,7-7v-60.3c0-26,16.5-41.5,35.7-59.4
			c21-19.7,44.8-41.9,44.8-81.5V85.5C245.2,81.6,242.1,78.5,238.2,78.5z"/>
	</g>
	<g class="st2">
		<g>
			<path d="M185,221.9c-0.5,0-1-0.2-1.3-0.5c-19.1-18.6-36.8-40.6-36.8-75.5V85.5c0-6,4.9-10.9,10.9-10.9c6,0,10.9,4.9,10.9,10.9
				v60.4c0,28.4,15.2,45.4,30.7,60.4c0.4,0.4,0.6,0.9,0.6,1.4c0,0.5-0.2,1-0.6,1.4c-2.8,2.7-5.6,5.3-8.4,8l-4.6,4.3
				C186,221.7,185.5,221.9,185,221.9z M157.8,78.5c-3.9,0-7,3.1-7,7v60.4c0,32.7,16.3,53.7,34.3,71.4l3.2-3c2.3-2.2,4.7-4.4,6.9-6.6
				c-15.6-15.3-30.4-32.8-30.4-61.8V85.5C164.8,81.6,161.6,78.5,157.8,78.5z"/>
		</g>
		<g>
			<path d="M238.2,357.9c-6,0-10.9-4.9-10.9-10.9v-60.4c0-22.3-13.3-36.6-30.7-53c-0.4-0.4-0.6-0.9-0.6-1.4c0-0.5,0.2-1.1,0.6-1.4
				c1.3-1.2,2.5-2.4,3.8-3.6c3-2.8,6.1-5.7,9.2-8.7c0.8-0.7,1.9-0.7,2.7,0c19.4,18.3,36.8,37.3,36.8,68.1V347
				C249.1,353,244.2,357.9,238.2,357.9z M200.8,232.3c17.3,16.4,30.4,31.2,30.4,54.4V347c0,3.8,3.1,7,7,7c3.9,0,7-3.1,7-7v-60.4
				c0-28.6-16-46.7-34.2-64c-2.7,2.5-5.3,5-7.9,7.5C202.4,230.9,201.6,231.6,200.8,232.3z"/>
		</g>
	</g>
</g>
<g class="st1">
	<g class="st2">
		<g>
			<path d="M273.6,252H122c-13.5,0-17.1-11.2-17.1-17.1v-60.7c0-13.5,11.2-17.1,17.1-17.1h5.8c0.7-3.3,3.1-7.6,9.3-7.6h15.2
				c6.2,0,8.7,4.2,9.3,7.6h5.8c3,0,6.6-3.6,10-7c4-4,8.1-8.1,12.7-8.1h30.4c4.6,0,8.7,4.1,12.7,8.1c3.5,3.5,7,7,10,7h30.3
				c8.7,0,17.1,8.5,17.1,17.1v60.7C290.8,248.5,279.6,252,273.6,252z M122,161c-0.5,0-13.2,0.2-13.2,13.2v60.7
				c0,0.5,0.2,13.2,13.2,13.2h151.7c0.5,0,13.2-0.2,13.2-13.2v-60.7c0-6.5-6.7-13.2-13.2-13.2h-30.3c-4.6,0-8.8-4.2-12.8-8.2
				c-3.4-3.4-7-7-10-7h-30.4c-3,0-6.5,3.6-10,7c-4,4-8.2,8.2-12.8,8.2h-7.6c-1.1,0-2-0.9-2-2c0-0.9-0.3-5.6-5.6-5.6h-15.2
				c-5.4,0-5.6,5-5.6,5.6c0,1.1-0.9,2-2,2H122z"/>
		</g>
		<g>
			<line class="st9" x1="129.6" y1="159.1" x2="159.9" y2="159.1"/>
			<path d="M159.9,161h-30.3c-1.1,0-2-0.9-2-2s0.9-2,2-2h30.3c1.1,0,2,0.9,2,2S161,161,159.9,161z"/>
		</g>
		<g>
			<path d="M216.8,160.1H194c-2.6,0-4.8-2.1-4.8-4.8s2.1-4.8,4.8-4.8h22.8c2.6,0,4.8,2.1,4.8,4.8S219.4,160.1,216.8,160.1z
				 M194,152.5c-1.6,0-2.8,1.3-2.8,2.8s1.3,2.8,2.8,2.8h22.8c1.6,0,2.8-1.3,2.8-2.8s-1.3-2.8-2.8-2.8H194z"/>
		</g>
		<g>
			<path d="M197.8,243c-21.2,0-38.4-17.2-38.4-38.4c0-21.2,17.2-38.4,38.4-38.4c21.2,0,38.4,17.2,38.4,38.4
				C236.3,225.8,219,243,197.8,243z M197.8,170.1c-19,0-34.5,15.5-34.5,34.5c0,19,15.5,34.5,34.5,34.5c19,0,34.5-15.5,34.5-34.5
				C232.3,185.5,216.9,170.1,197.8,170.1z"/>
		</g>
		<g>
			<path d="M197.8,232.1c-15.2,0-27.5-12.3-27.5-27.5c0-15.2,12.3-27.5,27.5-27.5c15.2,0,27.5,12.3,27.5,27.5
				C225.4,219.8,213,232.1,197.8,232.1z M197.8,179c-14.1,0-25.6,11.5-25.6,25.6c0,14.1,11.5,25.6,25.6,25.6s25.6-11.5,25.6-25.6
				C223.4,190.5,211.9,179,197.8,179z"/>
		</g>
		<g>
			<path d="M178.9,209.3c-0.5,0-1-0.4-1-1c0-13.1,10.6-23.7,23.7-23.7c0.5,0,1,0.4,1,1c0,0.5-0.4,1-1,1c-12,0-21.8,9.8-21.8,21.8
				C179.9,208.9,179.4,209.3,178.9,209.3z"/>
		</g>
	</g>
	<g class="st2">
		<path d="M80.2,259.5c-5.5,0-15.9-3.3-15.9-15.9v-69.8c0-12.6,10.4-15.9,15.9-15.9c12.6,0,15.9,10.4,15.9,15.9v69.8
			C96.1,256.2,85.7,259.5,80.2,259.5z M80.2,161.8c-1.2,0-12,0.4-12,12v69.8c0,11.6,10.7,12,12,12c1.3,0,12-0.4,12-12v-69.8
			C92.2,172.6,91.8,161.8,80.2,161.8z"/>
	</g>
	<g class="st2">
		<path d="M315.8,259.1c-5.5,0-15.9-3.3-15.9-15.9v-69.8c0-12.6,10.4-15.9,15.9-15.9c12.6,0,15.9,10.4,15.9,15.9v69.8
			C331.7,255.8,321.3,259.1,315.8,259.1z M315.8,161.4c-1.2,0-12,0.4-12,12v69.8c0,11.8,11.4,12,12,12c1.2,0,12-0.4,12-12v-69.7
			C327.8,172.2,327.4,161.4,315.8,161.4z"/>
	</g>
	<path class="st2" d="M197.8,134.4c-0.5,0-1-0.4-1-1v-26.7c0-0.5,0.4-1,1-1c0.5,0,1,0.4,1,1v26.7C198.8,134,198.4,134.4,197.8,134.4
		z"/>
	<path class="st2" d="M197.8,107.7c-3.8,0-6.9-3.1-6.9-6.9c0-3.8,3.1-6.9,6.9-6.9c3.8,0,6.9,3.1,6.9,6.9
		C204.7,104.6,201.6,107.7,197.8,107.7z M197.8,95.9c-2.7,0-4.9,2.2-4.9,4.9c0,2.7,2.2,4.9,4.9,4.9c2.7,0,4.9-2.2,4.9-4.9
		C202.7,98.1,200.5,95.9,197.8,95.9z"/>
	<g class="st2">
		<path d="M249.1,338.5c-12,0-21.4-16.2-21.4-36.9c0-20.7,9.4-36.9,21.4-36.9c12,0,21.4,16.2,21.4,36.9
			C270.5,322.3,261.1,338.5,249.1,338.5z M249.1,268.7c-9.5,0-17.5,15.1-17.5,33c0,17.9,8,33,17.5,33c9.5,0,17.5-15.1,17.5-33
			C266.6,283.8,258.6,268.7,249.1,268.7z"/>
	</g>
	<ellipse class="st2" cx="249.1" cy="301.6" rx="5.8" ry="10.4"/>
	<g class="st2">
		<path d="M165.9,338.5c-12,0-21.4-16.2-21.4-36.9c0-20.7,9.4-36.9,21.4-36.9c12,0,21.4,16.2,21.4,36.9
			C187.3,322.3,177.9,338.5,165.9,338.5z M165.9,268.7c-9.5,0-17.5,15.1-17.5,33c0,17.9,8,33,17.5,33c9.5,0,17.5-15.1,17.5-33
			C183.4,283.8,175.4,268.7,165.9,268.7z"/>
	</g>
	<ellipse class="st2" cx="165.9" cy="301.6" rx="5.8" ry="10.4"/>
	<g class="st2">
		<g>
			<path d="M249.1,338.5h-19.5c-12,0-21.4-16.2-21.4-36.9c0-20.7,9.4-36.9,21.4-36.9h19.5c1.1,0,2,0.9,2,2c0,1.1-0.9,2-2,2
				c-9.5,0-17.5,15.1-17.5,33c0,17.9,8,33,17.5,33c1.1,0,2,0.9,2,2C251,337.7,250.2,338.5,249.1,338.5z M229.6,268.7
				c-9.5,0-17.5,15.1-17.5,33c0,17.9,8,33,17.5,33h9.7c-7-6-11.7-18.4-11.7-33c0-14.6,4.7-27,11.7-33L229.6,268.7L229.6,268.7z"/>
		</g>
		<g>
			<polygon points="249.1,336.6 249.1,336.6 249.1,336.6 			"/>
			<path d="M249.1,338.5L249.1,338.5c-1.1,0-2-0.9-2-2c0-1.1,0.9-2,2-2s2,0.9,2,2C251,337.7,250.2,338.5,249.1,338.5z"/>
		</g>
	</g>
	<g class="st2">
		<g>
			<path d="M165.9,338.5h-19.5c-12,0-21.4-16.2-21.4-36.9c0-20.7,9.4-36.9,21.4-36.9h19.5c1.1,0,2,0.9,2,2c0,1.1-0.9,2-2,2
				c-9.5,0-17.5,15.1-17.5,33c0,17.9,8,33,17.5,33c1.1,0,2,0.9,2,2C167.8,337.7,166.9,338.5,165.9,338.5z M146.4,268.7
				c-9.5,0-17.5,15.1-17.5,33c0,17.9,8,33,17.5,33h9.7c-7-6-11.7-18.4-11.7-33c0-14.6,4.7-27,11.7-33L146.4,268.7L146.4,268.7z"/>
		</g>
		<g>
			<polygon points="165.9,336.6 165.9,336.6 165.9,336.6 			"/>
			<path d="M165.9,338.5L165.9,338.5c-1.1,0-2-0.9-2-2c0-1.1,0.9-2,2-2s2,0.9,2,2C167.8,337.7,167,338.5,165.9,338.5z"/>
		</g>
	</g>
</g>
<g class="st1">
	<g class="st2">
		<path d="M164.2,192c-0.5,0-0.9-0.4-1-0.9c-0.1-0.5,0.3-1,0.9-1.1c0.2,0,15.5-1.8,33.5-8.5c16.5-6.2,38.8-17.9,51-38.7
			c0.3-0.5,0.9-0.6,1.3-0.4c0.5,0.3,0.6,0.9,0.4,1.3c-12.5,21.4-35.2,33.3-52,39.6c-18.2,6.8-33.7,8.6-33.9,8.6
			C164.3,192,164.3,192,164.2,192z"/>
		<path d="M181.3,236.2c-0.5,0-0.9-0.3-1-0.8c-0.1-0.5,0.3-1,0.8-1.1c0.4-0.1,37.1-7.2,50.4-43.7c0.2-0.5,0.7-0.8,1.3-0.6
			c0.5,0.2,0.8,0.7,0.6,1.3c-13.7,37.6-51.5,44.8-51.8,44.9C181.4,236.2,181.3,236.2,181.3,236.2z"/>
		<path d="M198.3,155.5c-54.9,0-56.5-17-56.5-19c0-1.9,1.6-19,56.5-19c54.9,0,56.5,17.1,56.5,19S253.2,155.5,198.3,155.5z
			 M198.3,121.4c-51.1,0-52.5,15-52.6,15.1c0,0,1.4,15,52.6,15c51.1,0,52.6-14.9,52.6-15.1C250.9,136.4,249.4,121.4,198.3,121.4z"/>
		<path d="M198.3,284.9L198.3,284.9c-0.8,0-1.5-0.5-1.8-1.3l-53.3-143.2c-0.3-0.9,0.1-2,1-2.4c0.9-0.4,2-0.1,2.5,0.7
			c2.4,3.9,12.3,12.8,51.6,12.8c39.3,0,49.2-9,51.6-12.8c0.5-0.8,1.6-1.2,2.5-0.7c0.9,0.4,1.3,1.5,1,2.4l-53.3,143.2
			C199.9,284.4,199.1,284.9,198.3,284.9z M149.7,146.7l48.6,130.7L247,146.7c-7.3,4.5-21.4,8.8-48.6,8.8
			C171,155.5,156.9,151.1,149.7,146.7z"/>
	</g>
	<g class="st2">
		<path d="M198.7,110.2c-0.5,0-1-0.4-1-1V82.5c0-0.5,0.4-1,1-1c0.5,0,1,0.4,1,1v26.7C199.7,109.8,199.3,110.2,198.7,110.2z"/>
		<path d="M198.7,83.5c-3.8,0-6.9-3.1-6.9-6.9c0-3.8,3.1-6.9,6.9-6.9c3.8,0,6.9,3.1,6.9,6.9C205.6,80.4,202.5,83.5,198.7,83.5z
			 M198.7,71.7c-2.7,0-4.9,2.2-4.9,4.9s2.2,4.9,4.9,4.9s4.9-2.2,4.9-4.9C203.6,73.9,201.4,71.7,198.7,71.7z"/>
	</g>
	<g class="st2">
		<path d="M122,264c-5.5,0-15.9-3.3-15.9-15.9v-69.8c0-12.6,10.4-15.9,15.9-15.9c12.6,0,15.9,10.4,15.9,15.9V248
			C137.9,260.6,127.5,264,122,264z M122,166.3c-1.2,0-12,0.4-12,12V248c0,11.8,11.4,12,12,12c1.2,0,12-0.4,12-12v-69.8
			C134,177.1,133.6,166.3,122,166.3z"/>
	</g>
	<g class="st2">
		<path d="M274,264c-5.5,0-15.9-3.3-15.9-15.9v-69.8c0-12.6,10.4-15.9,15.9-15.9c12.6,0,15.9,10.4,15.9,15.9V248
			C289.9,260.6,279.5,264,274,264z M274,166.3c-1.2,0-12,0.4-12,12V248c0,11.6,10.7,12,12,12c1.3,0,12-0.4,12-12v-69.8
			C286,177.1,285.6,166.3,274,166.3z"/>
	</g>
	<g class="st2">
		<path d="M249.4,362.7c-12,0-21.4-16.2-21.4-36.9c0-20.7,9.4-36.9,21.4-36.9c12,0,21.4,16.2,21.4,36.9
			C270.8,346.5,261.4,362.7,249.4,362.7z M249.4,292.8c-9.5,0-17.5,15.1-17.5,33c0,17.9,8,33,17.5,33s17.5-15.1,17.5-33
			C266.9,307.9,258.9,292.8,249.4,292.8z"/>
	</g>
	<path class="st2" d="M255.2,325.8c0,5.7-2.6,10.4-5.8,10.4c-3.2,0-5.8-4.6-5.8-10.4c0-5.7,2.6-10.4,5.8-10.4
		C252.6,315.4,255.2,320.1,255.2,325.8z"/>
	<g class="st2">
		<path d="M166.2,362.7c-12,0-21.4-16.2-21.4-36.9c0-20.7,9.4-36.9,21.4-36.9s21.4,16.2,21.4,36.9
			C187.6,346.5,178.2,362.7,166.2,362.7z M166.2,292.8c-9.5,0-17.5,15.1-17.5,33c0,17.9,8,33,17.5,33c9.5,0,17.5-15.1,17.5-33
			C183.7,307.9,175.7,292.8,166.2,292.8z"/>
	</g>
	<path class="st2" d="M172,325.8c0,5.7-2.6,10.4-5.8,10.4c-3.2,0-5.8-4.6-5.8-10.4c0-5.7,2.6-10.4,5.8-10.4
		C169.4,315.4,172,320.1,172,325.8z"/>
	<g class="st2">
		<g>
			<path d="M249.4,362.7h-19.5c-12,0-21.4-16.2-21.4-36.9c0-20.7,9.4-36.9,21.4-36.9h19.5c1.1,0,2,0.9,2,2c0,1.1-0.9,2-2,2
				c-9.5,0-17.5,15.1-17.5,33c0,17.9,8,33,17.5,33c1.1,0,2,0.9,2,2C251.4,361.8,250.5,362.7,249.4,362.7z M229.9,292.8
				c-9.5,0-17.5,15.1-17.5,33c0,17.9,8,33,17.5,33h9.7c-7-6-11.7-18.4-11.7-33c0-14.6,4.7-27,11.7-33L229.9,292.8L229.9,292.8z"/>
		</g>
		<g>
			<polygon points="249.4,360.7 249.4,360.7 249.4,360.7 			"/>
			<path d="M249.4,362.7L249.4,362.7c-1.1,0-2-0.9-2-2c0-1,0.7-1.8,1.6-1.9c1.2-0.2,2.3,0.7,2.3,1.9
				C251.4,361.8,250.5,362.7,249.4,362.7z"/>
		</g>
	</g>
	<g class="st2">
		<g>
			<path d="M166.2,362.7h-19.5c-12,0-21.4-16.2-21.4-36.9c0-20.7,9.4-36.9,21.4-36.9h19.5c1.1,0,2,0.9,2,2c0,1.1-0.9,2-2,2
				c-9.5,0-17.5,15.1-17.5,33c0,17.9,8,33,17.5,33c1.1,0,2,0.9,2,2C168.1,361.8,167.3,362.7,166.2,362.7z M146.7,292.8
				c-9.5,0-17.5,15.1-17.5,33c0,17.9,8,33,17.5,33h9.7c-7-6-11.7-18.4-11.7-33c0-14.6,4.7-27,11.7-33L146.7,292.8L146.7,292.8z"/>
		</g>
		<g>
			<polygon points="166.2,360.7 166.2,360.7 166.2,360.7 			"/>
			<path d="M166.2,362.7L166.2,362.7c-1.1,0-2-0.9-2-2c0-1,0.7-1.8,1.6-1.9c1.2-0.2,2.3,0.7,2.3,1.9
				C168.2,361.8,167.3,362.7,166.2,362.7z"/>
		</g>
	</g>
</g>
<g class="st1">
	<path class="st2" d="M197.3,288.1c-2.2,0-6.3-1-6.3-4.6c0-1.3-0.7-2.1-1.7-3.1c-1.5-1.6-3.4-3.6-3.4-8.3v-87.1
		c0-0.4,0.5-0.8,1.1-0.8h20.7c0.6,0,1.1,0.4,1.1,0.8v87.1c0,4.7-1.9,6.7-3.4,8.3c-1,1-1.7,1.8-1.7,3.1
		C203.6,287.1,199.5,288.1,197.3,288.1z M188.1,185.9v86.2c0,4.2,1.6,5.8,3,7.3c1.1,1.1,2.1,2.2,2.1,4c0,2.9,3.6,3,4.1,3
		c0.4,0,4.1-0.1,4.1-3c0-1.8,1-2.9,2.1-4c1.4-1.5,3-3.1,3-7.3v-86.2H188.1z"/>
	<g class="st2">
		<path d="M207.8,188.2h-18.3c-2.6,0-6.5-1.7-6.5-6.5v-33c-3-3.6-4.6-8.2-4.6-12.8c0-11.2,9.1-20.3,20.3-20.3
			c11.2,0,20.3,9.1,20.3,20.3c0,4.7-1.6,9.2-4.6,12.8v33C214.4,186.5,210.5,188.2,207.8,188.2z M198.7,119.4
			c-9,0-16.4,7.4-16.4,16.4c0,4,1.5,7.8,4.1,10.8c0.3,0.4,0.5,0.8,0.5,1.3v33.7c0,2.4,2,2.6,2.6,2.6h18.3c0.8,0,2.7-0.3,2.7-2.6
			v-33.8c0-0.5,0.2-0.9,0.5-1.3c2.6-3,4.1-6.8,4.1-10.8C215,126.8,207.7,119.4,198.7,119.4z"/>
	</g>
	<g class="st2">
		<path d="M198.2,104.6c-0.5,0-1-0.4-1-1V77c0-0.5,0.4-1,1-1c0.5,0,1,0.4,1,1v26.7C199.2,104.2,198.7,104.6,198.2,104.6z"/>
		<path d="M198.2,77.9c-3.8,0-6.9-3.1-6.9-6.9c0-3.8,3.1-6.9,6.9-6.9c3.8,0,6.9,3.1,6.9,6.9C205,74.8,202,77.9,198.2,77.9z
			 M198.2,66.1c-2.7,0-4.9,2.2-4.9,4.9c0,2.7,2.2,4.9,4.9,4.9c2.7,0,4.9-2.2,4.9-4.9C203.1,68.3,200.9,66.1,198.2,66.1z"/>
	</g>
	<g class="st2">
		<path d="M147.8,276.7c-5.5,0-15.9-3.3-15.9-15.9V191c0-12.6,10.4-15.9,15.9-15.9c12.6,0,15.9,10.4,15.9,15.9v69.8
			C163.7,273.3,153.3,276.7,147.8,276.7z M147.8,179c-1.2,0-12,0.4-12,12v69.8c0,11.8,11.4,12,12,12c1.2,0,12-0.4,12-12V191
			C159.8,189.8,159.4,179,147.8,179z"/>
	</g>
	<g class="st2">
		<path d="M249.1,276.7c-5.5,0-15.9-3.3-15.9-15.9V191c0-12.6,10.4-15.9,15.9-15.9c12.6,0,15.9,10.4,15.9,15.9v69.8
			C265,273.3,254.6,276.7,249.1,276.7z M249.1,179c-1.2,0-12,0.4-12,12v69.8c0,11.8,11.4,12,12,12c1.2,0,12-0.4,12-12V191
			C261.1,189.8,260.7,179,249.1,179z"/>
	</g>
	<g class="st2">
		<path d="M249.3,368.3c-12,0-21.4-16.2-21.4-36.9c0-20.7,9.4-36.9,21.4-36.9c12,0,21.4,16.2,21.4,36.9
			C270.8,352.1,261.4,368.3,249.3,368.3z M249.3,298.4c-9.5,0-17.5,15.1-17.5,33c0,17.9,8,33,17.5,33c9.5,0,17.5-15.1,17.5-33
			C266.9,313.5,258.8,298.4,249.3,298.4z"/>
	</g>
	<ellipse class="st2" cx="249.3" cy="331.4" rx="5.8" ry="10.4"/>
	<g class="st2">
		<path d="M166.1,368.3c-12,0-21.4-16.2-21.4-36.9c0-20.7,9.4-36.9,21.4-36.9c12,0,21.4,16.2,21.4,36.9
			C187.6,352.1,178.2,368.3,166.1,368.3z M166.1,298.4c-9.5,0-17.5,15.1-17.5,33c0,17.9,8,33,17.5,33c9.5,0,17.5-15.1,17.5-33
			C183.7,313.5,175.6,298.4,166.1,298.4z"/>
	</g>
	<ellipse class="st2" cx="166.1" cy="331.4" rx="5.8" ry="10.4"/>
	<g class="st2">
		<g>
			<path d="M249.3,368.3h-19.5c-12,0-21.4-16.2-21.4-36.9c0-20.7,9.4-36.9,21.4-36.9h19.5c1.1,0,2,0.9,2,2c0,1.1-0.9,2-2,2
				c-9.5,0-17.5,15.1-17.5,33c0,17.9,8,33,17.5,33c1.1,0,2,0.9,2,2C251.3,367.4,250.4,368.3,249.3,368.3z M229.9,298.4
				c-9.5,0-17.5,15.1-17.5,33c0,17.9,8,33,17.5,33h9.7c-7-6-11.7-18.4-11.7-33c0-14.6,4.7-27,11.7-33L229.9,298.4L229.9,298.4z"/>
		</g>
		<g>
			<polygon points="249.3,366.3 249.4,366.3 249.4,366.3 			"/>
			<path d="M249.4,368.3L249.4,368.3c-1.1,0-2-0.9-2-2c0-1.1,0.9-2,2-2s2,0.9,2,2C251.3,367.4,250.5,368.3,249.4,368.3z"/>
		</g>
	</g>
	<g class="st2">
		<g>
			<path d="M166.1,368.3h-19.5c-12,0-21.4-16.2-21.4-36.9c0-20.7,9.4-36.9,21.4-36.9h19.5c1.1,0,2,0.9,2,2c0,1.1-0.9,2-2,2
				c-9.5,0-17.5,15.1-17.5,33c0,17.9,8,33,17.5,33c1.1,0,2,0.9,2,2C168.1,367.4,167.2,368.3,166.1,368.3z M146.7,298.4
				c-9.5,0-17.5,15.1-17.5,33c0,17.9,8,33,17.5,33h9.7c-7-6-11.7-18.4-11.7-33c0-14.6,4.7-27,11.7-33L146.7,298.4L146.7,298.4z"/>
		</g>
		<g>
			<polygon points="166.1,366.3 166.2,366.3 166.2,366.3 			"/>
			<path d="M166.2,368.3L166.2,368.3c-1.1,0-2-0.9-2-2c0-1.1,0.9-2,2-2s2,0.9,2,2C168.1,367.4,167.3,368.3,166.2,368.3z"/>
		</g>
	</g>
</g>
<g class="st1">
	<g class="st2">
		<g>
			<path d="M227.6,259.2h-61.5c-0.5,0-1-0.4-1-1c0-0.5,0.4-1,1-1h61.5c0.5,0,1,0.4,1,1C228.6,258.8,228.2,259.2,227.6,259.2z"/>
			<g>
				<path d="M196.8,249.8c-0.5,0-1-0.4-1-1v-29.6c0-0.5,0.4-1,1-1c0.5,0,1,0.4,1,1v29.6C197.8,249.4,197.4,249.8,196.8,249.8z"/>
				<path d="M206.7,230.1c-0.3,0-0.5-0.1-0.7-0.3l-9.2-9.2l-9.2,9.2c-0.4,0.4-1,0.4-1.4,0c-0.4-0.4-0.4-1,0-1.4l9.9-9.9
					c0.2-0.2,0.4-0.3,0.7-0.3l0,0c0.3,0,0.5,0.1,0.7,0.3l9.9,9.9c0.4,0.4,0.4,1,0,1.4C207.2,230,207,230.1,206.7,230.1z"/>
			</g>
		</g>
		<g>
			<path d="M223.3,209.2c-0.5,0-1.1-0.2-1.5-0.7c-0.1-0.1-8.2-9.1-23.9-9.1c-15.8,0-23.9,9-23.9,9.1c-0.7,0.8-1.9,0.9-2.8,0.2
				c-0.8-0.7-0.9-1.9-0.2-2.8c0.4-0.4,9.3-10.4,26.9-10.4c17.6,0,26.5,10,26.9,10.4c0.7,0.8,0.6,2-0.2,2.8
				C224.2,209,223.8,209.2,223.3,209.2z"/>
			<path d="M233.9,196.5c-0.5,0-1.1-0.2-1.5-0.7c-0.1-0.1-11.8-12.6-34.5-12.6c-22.7,0-34.4,12.5-34.5,12.6c-0.7,0.8-2,0.9-2.8,0.2
				c-0.8-0.7-0.9-2-0.2-2.8c0.5-0.6,12.9-14,37.5-14c24.6,0,36.9,13.4,37.4,14c0.7,0.8,0.6,2-0.2,2.8
				C234.8,196.3,234.3,196.5,233.9,196.5z"/>
			<path d="M244.5,183.8c-0.5,0-1.1-0.2-1.4-0.6c-0.1-0.2-15.4-16.2-45.1-16.2c-29.7,0-45,16-45.1,16.2c-0.7,0.8-2,0.9-2.8,0.1
				s-0.9-2-0.1-2.8c0.7-0.7,16.5-17.5,48-17.5c31.5,0,47.4,16.7,48,17.5c0.7,0.8,0.7,2-0.1,2.8C245.4,183.6,244.9,183.8,244.5,183.8
				z"/>
			<path d="M255,171.1c-0.5,0-1.1-0.2-1.4-0.6c-0.2-0.2-19-19.7-55.7-19.7s-55.5,19.5-55.7,19.7c-0.7,0.8-2,0.8-2.8,0.1
				c-0.8-0.7-0.8-2-0.1-2.8c0.8-0.9,20.1-21,58.6-21c38.5,0,57.8,20.1,58.6,21c0.7,0.8,0.7,2-0.1,2.8
				C256,170.9,255.5,171.1,255,171.1z"/>
			<path d="M265.6,158.4c-0.5,0-1-0.2-1.4-0.6c-0.2-0.2-22.6-23.3-66.3-23.3c-43.7,0-66.1,23-66.3,23.3c-0.7,0.8-2,0.8-2.8,0.1
				c-0.8-0.7-0.8-2-0.1-2.8c0.9-1,23.7-24.5,69.1-24.5c45.5,0,68.2,23.5,69.1,24.5c0.7,0.8,0.7,2-0.1,2.8
				C266.6,158.2,266.1,158.4,265.6,158.4z"/>
		</g>
	</g>
	<g class="st2">
		<path d="M108.9,265.7c-5.5,0-15.9-3.3-15.9-15.9V180c0-12.6,10.4-15.9,15.9-15.9c12.6,0,15.9,10.4,15.9,15.9v69.8
			C124.8,262.3,114.4,265.7,108.9,265.7z M108.9,168c-1.2,0-12,0.4-12,12v69.8c0,11.8,11.4,12,12,12c1.2,0,12-0.4,12-12V180
			C120.8,178.8,120.4,168,108.9,168z"/>
	</g>
	<g class="st2">
		<path d="M287.1,265.2c-5.5,0-15.9-3.3-15.9-15.9v-69.8c0-12.6,10.4-15.9,15.9-15.9c12.6,0,15.9,10.4,15.9,15.9v69.8
			C303,261.9,292.6,265.2,287.1,265.2z M287.1,167.5c-1.2,0-12,0.4-12,12v69.8c0,11.8,11.4,12,12,12c1.2,0,12-0.4,12-12v-69.8
			C299.1,178.3,298.7,167.5,287.1,167.5z"/>
	</g>
	<path class="st2" d="M197.8,122.6c-0.5,0-1-0.4-1-1V94.9c0-0.5,0.4-1,1-1c0.5,0,1,0.4,1,1v26.7
		C198.7,122.2,198.3,122.6,197.8,122.6z"/>
	<path class="st2" d="M197.8,95.9c-3.8,0-6.9-3.1-6.9-6.9c0-3.8,3.1-6.9,6.9-6.9c3.8,0,6.9,3.1,6.9,6.9
		C204.6,92.8,201.5,95.9,197.8,95.9z M197.8,84.1c-2.7,0-4.9,2.2-4.9,4.9c0,2.7,2.2,4.9,4.9,4.9c2.7,0,4.9-2.2,4.9-4.9
		C202.7,86.3,200.5,84.1,197.8,84.1z"/>
	<g class="st2">
		<path d="M247.5,350.3c-12,0-21.4-16.2-21.4-36.9c0-20.7,9.4-36.9,21.4-36.9s21.4,16.2,21.4,36.9
			C268.9,334.1,259.5,350.3,247.5,350.3z M247.5,280.5c-9.5,0-17.5,15.1-17.5,33c0,17.9,8,33,17.5,33s17.5-15.1,17.5-33
			C265,295.6,257,280.5,247.5,280.5z"/>
	</g>
	<ellipse class="st2" cx="247.5" cy="313.4" rx="5.8" ry="10.4"/>
	<g class="st2">
		<path d="M164.3,350.3c-12,0-21.4-16.2-21.4-36.9c0-20.7,9.4-36.9,21.4-36.9c12,0,21.4,16.2,21.4,36.9
			C185.7,334.1,176.3,350.3,164.3,350.3z M164.3,280.5c-9.5,0-17.5,15.1-17.5,33c0,17.9,8,33,17.5,33c9.5,0,17.5-15.1,17.5-33
			C181.8,295.6,173.8,280.5,164.3,280.5z"/>
	</g>
	<ellipse class="st2" cx="164.3" cy="313.4" rx="5.8" ry="10.4"/>
	<g class="st2">
		<g>
			<path d="M247.5,350.3H228c-12,0-21.4-16.2-21.4-36.9c0-20.7,9.4-36.9,21.4-36.9h19.5c1.1,0,2,0.9,2,2c0,1.1-0.9,2-2,2
				c-9.5,0-17.5,15.1-17.5,33c0,17.9,8,33,17.5,33c1.1,0,2,0.9,2,2C249.4,349.5,248.6,350.3,247.5,350.3z M228,280.5
				c-9.5,0-17.5,15.1-17.5,33c0,17.9,8,33,17.5,33h9.7c-7-6-11.7-18.4-11.7-33c0-14.6,4.7-27,11.7-33H228z"/>
		</g>
		<g>
			<polygon points="247.5,348.4 247.5,348.4 247.5,348.4 			"/>
			<path d="M247.5,350.3L247.5,350.3c-1.1,0-2-0.9-2-2c0-1,0.7-1.8,1.6-1.9c1.2-0.2,2.3,0.7,2.3,1.9
				C249.5,349.4,248.6,350.3,247.5,350.3z"/>
		</g>
	</g>
	<g class="st2">
		<g>
			<path d="M164.3,350.3h-19.5c-12,0-21.4-16.2-21.4-36.9c0-20.7,9.4-36.9,21.4-36.9h19.5c1.1,0,2,0.9,2,2c0,1.1-0.9,2-2,2
				c-9.5,0-17.5,15.1-17.5,33c0,17.9,8,33,17.5,33c1.1,0,2,0.9,2,2C166.2,349.5,165.4,350.3,164.3,350.3z M144.8,280.5
				c-9.5,0-17.5,15.1-17.5,33c0,17.9,8,33,17.5,33h9.7c-7-6-11.7-18.4-11.7-33c0-14.6,4.7-27,11.7-33H144.8z"/>
		</g>
		<g>
			<polygon points="164.3,348.4 164.3,348.4 164.3,348.4 			"/>
			<path d="M164.3,350.3L164.3,350.3c-1.1,0-2-0.9-2-2c0-1,0.7-1.8,1.6-1.9c1.2-0.2,2.3,0.7,2.3,1.9
				C166.3,349.4,165.4,350.3,164.3,350.3z"/>
		</g>
	</g>
</g>
<g class="st1">
	<path class="st2" d="M227.6,259.2h-61.5c-0.5,0-1-0.4-1-1c0-0.5,0.4-1,1-1h61.5c0.5,0,1,0.4,1,1
		C228.6,258.8,228.2,259.2,227.6,259.2z"/>
	<g class="st2">
		<path d="M196.8,218.3c0.5,0,1,0.4,1,1v29.6c0,0.5-0.4,1-1,1c-0.5,0-1-0.4-1-1v-29.6C195.9,218.7,196.3,218.3,196.8,218.3z"/>
		<path d="M187,238c0.3,0,0.5,0.1,0.7,0.3l9.2,9.2l9.2-9.2c0.4-0.4,1-0.4,1.4,0c0.4,0.4,0.4,1,0,1.4l-9.9,9.9
			c-0.2,0.2-0.4,0.3-0.7,0.3l0,0c-0.3,0-0.5-0.1-0.7-0.3l-9.9-9.9c-0.4-0.4-0.4-1,0-1.4C186.5,238.1,186.7,238,187,238z"/>
	</g>
	<g class="st2">
		<path d="M223.3,209.2c-0.5,0-1.1-0.2-1.5-0.7c-0.1-0.1-8.2-9.1-23.9-9.1c-15.8,0-23.9,9-23.9,9.1c-0.7,0.8-1.9,0.9-2.8,0.2
			c-0.8-0.7-0.9-1.9-0.2-2.8c0.4-0.4,9.3-10.4,26.9-10.4c17.6,0,26.5,10,26.9,10.4c0.7,0.8,0.6,2-0.2,2.8
			C224.2,209,223.8,209.2,223.3,209.2z"/>
		<path d="M233.9,196.5c-0.5,0-1.1-0.2-1.5-0.7c-0.1-0.1-11.8-12.6-34.5-12.6c-22.7,0-34.4,12.5-34.5,12.6c-0.7,0.8-2,0.9-2.8,0.2
			c-0.8-0.7-0.9-2-0.2-2.8c0.5-0.6,12.9-14,37.5-14c24.6,0,36.9,13.4,37.4,14c0.7,0.8,0.6,2-0.2,2.8
			C234.8,196.3,234.3,196.5,233.9,196.5z"/>
		<path d="M244.5,183.8c-0.5,0-1.1-0.2-1.4-0.6c-0.1-0.2-15.4-16.2-45.1-16.2c-29.7,0-45,16-45.1,16.2c-0.7,0.8-2,0.9-2.8,0.1
			s-0.9-2-0.1-2.8c0.7-0.7,16.5-17.5,48-17.5c31.5,0,47.4,16.7,48,17.5c0.7,0.8,0.7,2-0.1,2.8C245.4,183.6,244.9,183.8,244.5,183.8z
			"/>
		<path d="M255,171.1c-0.5,0-1.1-0.2-1.4-0.6c-0.2-0.2-19-19.7-55.7-19.7s-55.5,19.5-55.7,19.7c-0.7,0.8-2,0.8-2.8,0.1
			c-0.8-0.7-0.8-2-0.1-2.8c0.8-0.9,20.1-21,58.6-21c38.5,0,57.8,20.1,58.6,21c0.7,0.8,0.7,2-0.1,2.8
			C256,170.9,255.5,171.1,255,171.1z"/>
		<path d="M265.6,158.4c-0.5,0-1-0.2-1.4-0.6c-0.2-0.2-22.6-23.3-66.3-23.3c-43.7,0-66.1,23-66.3,23.3c-0.7,0.8-2,0.8-2.8,0.1
			c-0.8-0.7-0.8-2-0.1-2.8c0.9-1,23.7-24.5,69.1-24.5c45.5,0,68.2,23.5,69.1,24.5c0.7,0.8,0.7,2-0.1,2.8
			C266.6,158.2,266.1,158.4,265.6,158.4z"/>
	</g>
	<g class="st2">
		<path d="M108.9,265.7c-5.5,0-15.9-3.3-15.9-15.9V180c0-12.6,10.4-15.9,15.9-15.9c12.6,0,15.9,10.4,15.9,15.9v69.8
			C124.8,262.3,114.4,265.7,108.9,265.7z M108.9,168c-1.2,0-12,0.4-12,12v69.8c0,11.8,11.4,12,12,12c1.2,0,12-0.4,12-12V180
			C120.8,178.8,120.4,168,108.9,168z"/>
	</g>
	<g class="st2">
		<path d="M287.1,265.2c-5.5,0-15.9-3.3-15.9-15.9v-69.8c0-12.6,10.4-15.9,15.9-15.9c12.6,0,15.9,10.4,15.9,15.9v69.8
			C303,261.9,292.6,265.2,287.1,265.2z M287.1,167.5c-1.2,0-12,0.4-12,12v69.8c0,11.8,11.4,12,12,12c1.2,0,12-0.4,12-12v-69.8
			C299.1,178.3,298.7,167.5,287.1,167.5z"/>
	</g>
	<path class="st2" d="M197.8,122.6c-0.5,0-1-0.4-1-1V94.9c0-0.5,0.4-1,1-1c0.5,0,1,0.4,1,1v26.7
		C198.7,122.2,198.3,122.6,197.8,122.6z"/>
	<path class="st2" d="M197.8,95.9c-3.8,0-6.9-3.1-6.9-6.9c0-3.8,3.1-6.9,6.9-6.9c3.8,0,6.9,3.1,6.9,6.9
		C204.6,92.8,201.5,95.9,197.8,95.9z M197.8,84.1c-2.7,0-4.9,2.2-4.9,4.9c0,2.7,2.2,4.9,4.9,4.9c2.7,0,4.9-2.2,4.9-4.9
		C202.7,86.3,200.5,84.1,197.8,84.1z"/>
	<g class="st2">
		<path d="M247.5,350.3c-12,0-21.4-16.2-21.4-36.9c0-20.7,9.4-36.9,21.4-36.9s21.4,16.2,21.4,36.9
			C268.9,334.1,259.5,350.3,247.5,350.3z M247.5,280.5c-9.5,0-17.5,15.1-17.5,33c0,17.9,8,33,17.5,33s17.5-15.1,17.5-33
			C265,295.6,257,280.5,247.5,280.5z"/>
	</g>
	<ellipse class="st2" cx="247.5" cy="313.4" rx="5.8" ry="10.4"/>
	<g class="st2">
		<path d="M164.3,350.3c-12,0-21.4-16.2-21.4-36.9c0-20.7,9.4-36.9,21.4-36.9c12,0,21.4,16.2,21.4,36.9
			C185.7,334.1,176.3,350.3,164.3,350.3z M164.3,280.5c-9.5,0-17.5,15.1-17.5,33c0,17.9,8,33,17.5,33c9.5,0,17.5-15.1,17.5-33
			C181.8,295.6,173.8,280.5,164.3,280.5z"/>
	</g>
	<ellipse class="st2" cx="164.3" cy="313.4" rx="5.8" ry="10.4"/>
	<g class="st2">
		<g>
			<path d="M247.5,350.3H228c-12,0-21.4-16.2-21.4-36.9c0-20.7,9.4-36.9,21.4-36.9h19.5c1.1,0,2,0.9,2,2c0,1.1-0.9,2-2,2
				c-9.5,0-17.5,15.1-17.5,33c0,17.9,8,33,17.5,33c1.1,0,2,0.9,2,2C249.4,349.5,248.6,350.3,247.5,350.3z M228,280.5
				c-9.5,0-17.5,15.1-17.5,33c0,17.9,8,33,17.5,33h9.7c-7-6-11.7-18.4-11.7-33c0-14.6,4.7-27,11.7-33H228z"/>
		</g>
		<g>
			<polygon points="247.5,348.4 247.5,348.4 247.5,348.4 			"/>
			<path d="M247.5,350.3L247.5,350.3c-1.1,0-2-0.9-2-2c0-1,0.7-1.8,1.6-1.9c1.2-0.2,2.3,0.7,2.3,1.9
				C249.5,349.4,248.6,350.3,247.5,350.3z"/>
		</g>
	</g>
	<g class="st2">
		<g>
			<path d="M164.3,350.3h-19.5c-12,0-21.4-16.2-21.4-36.9c0-20.7,9.4-36.9,21.4-36.9h19.5c1.1,0,2,0.9,2,2c0,1.1-0.9,2-2,2
				c-9.5,0-17.5,15.1-17.5,33c0,17.9,8,33,17.5,33c1.1,0,2,0.9,2,2C166.2,349.5,165.4,350.3,164.3,350.3z M144.8,280.5
				c-9.5,0-17.5,15.1-17.5,33c0,17.9,8,33,17.5,33h9.7c-7-6-11.7-18.4-11.7-33c0-14.6,4.7-27,11.7-33H144.8z"/>
		</g>
		<g>
			<polygon points="164.3,348.4 164.3,348.4 164.3,348.4 			"/>
			<path d="M164.3,350.3L164.3,350.3c-1.1,0-2-0.9-2-2c0-1,0.7-1.8,1.6-1.9c1.2-0.2,2.3,0.7,2.3,1.9
				C166.3,349.4,165.4,350.3,164.3,350.3z"/>
		</g>
	</g>
</g>
<g class="st1">
	<g class="st2">
		<path d="M198,284.2c-19.8,0-35.4-7.2-35.4-16.3V129.5c0-1.1,0.9-2,2-2s2,0.9,2,2c0,5.9,12.9,12.4,31.5,12.4
			c18.5,0,31.5-6.5,31.5-12.4c0-1.1,0.9-2,2-2s2,0.9,2,2V268C233.4,277.1,217.9,284.2,198,284.2z M166.6,137.1V268
			c0,5.9,12.9,12.4,31.5,12.4c18.5,0,31.5-6.5,31.5-12.4V137.1c-5.8,5.2-17.6,8.7-31.5,8.7C184.2,145.8,172.4,142.3,166.6,137.1z"/>
	</g>
	<g class="st2">
		<path d="M198.5,189.3c-16.8,0-34.2-4.5-34.2-12.1c0-7.5,17.4-12.1,34.2-12.1c16.8,0,34.2,4.5,34.2,12.1
			C232.7,184.8,215.3,189.3,198.5,189.3z M198.5,167.2c-19,0-32.2,5.3-32.2,10.1c0,4.9,13,10.1,32.2,10.1c19.3,0,32.2-5.2,32.2-10.1
			C230.7,172.5,217.5,167.2,198.5,167.2z"/>
	</g>
	<g class="st2">
		<path d="M138.2,272.8c-5.5,0-15.9-3.3-15.9-15.9v-69.8c0-12.6,10.4-15.9,15.9-15.9c12.6,0,15.9,10.4,15.9,15.9v69.8
			C154.1,269.5,143.7,272.8,138.2,272.8z M138.2,175.2c-1.2,0-12,0.4-12,12v69.8c0,11.8,11.4,12,12,12c1.2,0,12-0.4,12-12v-69.8
			C150.2,185.9,149.7,175.2,138.2,175.2z"/>
	</g>
	<g class="st2">
		<path d="M257.8,272.8c-5.5,0-15.9-3.3-15.9-15.9v-69.8c0-12.6,10.4-15.9,15.9-15.9c12.6,0,15.9,10.4,15.9,15.9v69.8
			C273.7,269.5,263.3,272.8,257.8,272.8z M257.8,175.2c-1.2,0-12,0.4-12,12v69.8c0,11.8,11.4,12,12,12c1.2,0,12-0.4,12-12v-69.8
			C269.8,185.9,269.4,175.2,257.8,175.2z"/>
	</g>
	<path class="st2" d="M198.2,102.1c-0.5,0-1-0.4-1-1V74.4c0-0.5,0.4-1,1-1c0.5,0,1,0.4,1,1v26.7
		C199.1,101.6,198.7,102.1,198.2,102.1z"/>
	<path class="st2" d="M198.2,75.4c-3.8,0-6.9-3.1-6.9-6.9c0-3.8,3.1-6.9,6.9-6.9c3.8,0,6.9,3.1,6.9,6.9
		C205,72.3,201.9,75.4,198.2,75.4z M198.2,63.6c-2.7,0-4.9,2.2-4.9,4.9c0,2.7,2.2,4.9,4.9,4.9c2.7,0,4.9-2.2,4.9-4.9
		C203.1,65.8,200.9,63.6,198.2,63.6z"/>
	<g class="st2">
		<path d="M249.3,370.8c-12,0-21.4-16.2-21.4-36.9c0-20.7,9.4-36.9,21.4-36.9c12,0,21.4,16.2,21.4,36.9
			C270.7,354.6,261.3,370.8,249.3,370.8z M249.3,301c-9.5,0-17.5,15.1-17.5,33c0,17.9,8,33,17.5,33c9.5,0,17.5-15.1,17.5-33
			C266.8,316.1,258.8,301,249.3,301z"/>
	</g>
	<path class="st2" d="M255,333.9c0,5.7-2.6,10.4-5.8,10.4c-3.2,0-5.8-4.6-5.8-10.4c0-5.7,2.6-10.4,5.8-10.4
		C252.5,323.6,255,328.2,255,333.9z"/>
	<g class="st2">
		<path d="M166.1,370.8c-12,0-21.4-16.2-21.4-36.9c0-20.7,9.4-36.9,21.4-36.9c12,0,21.4,16.2,21.4,36.9
			C187.5,354.6,178.1,370.8,166.1,370.8z M166.1,301c-9.5,0-17.5,15.1-17.5,33c0,17.9,8,33,17.5,33c9.5,0,17.5-15.1,17.5-33
			C183.6,316.1,175.6,301,166.1,301z"/>
	</g>
	<ellipse class="st2" cx="166.1" cy="333.9" rx="5.8" ry="10.4"/>
	<g class="st2">
		<g>
			<path d="M249.3,370.8h-19.5c-12,0-21.4-16.2-21.4-36.9c0-20.7,9.4-36.9,21.4-36.9h19.5c1.1,0,2,0.9,2,2c0,1.1-0.9,2-2,2
				c-9.5,0-17.5,15.1-17.5,33c0,17.9,8,33,17.5,33c1.1,0,2,0.9,2,2C251.2,370,250.4,370.8,249.3,370.8z M229.8,301
				c-9.5,0-17.5,15.1-17.5,33c0,17.9,8,33,17.5,33h9.7c-7-6-11.7-18.4-11.7-33c0-14.6,4.7-27,11.7-33L229.8,301L229.8,301z"/>
		</g>
		<g>
			<polygon points="249.3,368.9 249.3,368.9 249.3,368.9 			"/>
			<path d="M249.3,370.8L249.3,370.8c-1.1,0-2-0.9-2-2c0-1,0.8-1.9,1.8-1.9c0,0,0.1,0,0.1,0c1.1,0,2,0.9,2,2
				C251.2,370,250.4,370.8,249.3,370.8z"/>
		</g>
	</g>
	<g class="st2">
		<g>
			<path d="M166.1,370.8h-19.5c-12,0-21.4-16.2-21.4-36.9c0-20.7,9.4-36.9,21.4-36.9h19.5c1.1,0,2,0.9,2,2c0,1.1-0.9,2-2,2
				c-9.5,0-17.5,15.1-17.5,33c0,17.9,8,33,17.5,33c1.1,0,2,0.9,2,2C168,370,167.1,370.8,166.1,370.8z M146.6,301
				c-9.5,0-17.5,15.1-17.5,33c0,17.9,8,33,17.5,33h9.7c-7-6-11.7-18.4-11.7-33c0-14.6,4.7-27,11.7-33L146.6,301L146.6,301z"/>
		</g>
		<g>
			<polygon points="166.1,368.9 166.1,368.9 166.1,368.9 			"/>
			<path d="M166.1,370.8L166.1,370.8c-1.1,0-2-0.9-2-2c0-1.1,0.9-2,2-2c1.1,0,2,0.9,2,2C168,370,167.2,370.8,166.1,370.8z"/>
		</g>
	</g>
	<g class="st2">
		<path d="M198,145.8c-19.8,0-35.4-7.2-35.4-16.3c0-6.6,8-12.3,20.9-14.9c1.1-0.2,2.1,0.5,2.3,1.5c0.2,1.1-0.5,2.1-1.5,2.3
			c-10.6,2.1-17.7,6.6-17.7,11c0,5.9,12.9,12.4,31.5,12.4c18.5,0,31.5-6.5,31.5-12.4c0-4.5-7.1-8.9-17.7-11
			c-1.1-0.2-1.7-1.2-1.5-2.3c0.2-1.1,1.3-1.7,2.3-1.5c12.9,2.6,20.9,8.3,20.9,14.9C233.4,138.7,217.9,145.8,198,145.8z"/>
	</g>
	<g class="st2">
		<path d="M198.2,136.1c-14.8,0-15.4-5.8-15.4-6.5v-11.9c0-0.5,0.4-1,1-1c0.5,0,1,0.4,1,1c0,0.2,0.3,6.2,13.3,6.2
			c13,0,13.3-5.9,13.3-6.2c0-0.5,0.4-1,1-1c0.5,0,1,0.4,1,1l0,0l0,0l0,0l0,0l0,0l0,0l0,0l0,0v0c0,0,0,0,0,0v11.9
			c0,0.1,0,1.5-1.4,2.9C209.6,134.9,205,136.1,198.2,136.1z M184.7,129.6c0,0,0.5,4.6,13.5,4.6c12.9,0,13.2-4.5,13.2-4.6v-7.8
			c-1.9,2-5.8,4-13.3,4c-7.6,0-11.4-2-13.3-4V129.6L184.7,129.6z"/>
	</g>
	<g class="st2">
		<path d="M198,125.8c-8.6,0-15.3-3.6-15.3-8.1c0-4.6,6.7-8.1,15.3-8.1c8.6,0,15.3,3.6,15.3,8.1C213.3,122.2,206.6,125.8,198,125.8z
			 M198,111.4c-8,0-13.3,3.2-13.3,6.2c0,3.3,6.1,6.2,13.3,6.2c7.2,0,13.3-2.8,13.3-6.2C211.4,114.6,206,111.4,198,111.4z"/>
	</g>
</g>
<g class="st1">
	<g class="st2">
		<path d="M181.5,169.6c-0.4,0.4-0.9,0.6-1.4,0.6h-5.4l-20.5,10.3l20.5,10.3h47.9l20.5-10.3l-20.5-10.3h-5.4c-0.5,0-0.9-0.2-1.2-0.4
			c-0.5-0.4,2.6-3.5,2.6-3.5h4.5c0.3,0,0.6,0.1,0.9,0.2l24.4,12.2c0.7,0.3,1.1,1,1.1,1.7c0,0.7-0.4,1.4-1.1,1.7L224,194.4
			c-0.3,0.1-0.6,0.2-0.9,0.2h-48.8c-0.3,0-0.6-0.1-0.9-0.2L149,182.2c-0.7-0.3-1.1-1-1.1-1.7c0-0.7,0.4-1.4,1.1-1.7l24.4-12.2
			c0.3-0.1,0.6-0.2,0.9-0.2h4.6"/>
		<path d="M178.8,166.3c0,0,3,3,2.7,3.3"/>
	</g>
	<g class="st2">
		<path d="M247.5,267.9h-97.7c-0.5,0-0.9-0.2-1.3-0.5L120.9,243c-0.6-0.6-0.8-1.5-0.5-2.3l27.7-61.1c0.2-0.5,0.6-0.9,1.1-1
			c0.5-0.2,1.1-0.1,1.5,0.1l24,12h47.9l24-12c0.5-0.2,1-0.3,1.5-0.1c0.5,0.2,0.9,0.6,1.1,1l27.7,61.1c0.4,0.8,0.2,1.7-0.5,2.3
			l-27.7,24.4C248.5,267.7,248,267.9,247.5,267.9z M150.6,264h96.3l26-23l-26.2-57.9L224,194.4c-0.3,0.1-0.6,0.2-0.9,0.2h-48.8
			c-0.3,0-0.6-0.1-0.9-0.2l-22.6-11.3L124.5,241L150.6,264z"/>
	</g>
	<g class="st2">
		<line class="st9" x1="149.8" y1="266" x2="174.3" y2="192.7"/>
		<path d="M149.8,267.9c-0.2,0-0.4,0-0.6-0.1c-1-0.3-1.6-1.5-1.2-2.5l24.5-73.3c0.3-1,1.4-1.6,2.5-1.2c1,0.3,1.6,1.5,1.2,2.5
			l-24.5,73.3C151.4,267.4,150.6,267.9,149.8,267.9z"/>
	</g>
	<g class="st2">
		<line class="st9" x1="223.1" y1="192.7" x2="247.5" y2="266"/>
		<path d="M247.5,267.9c-0.8,0-1.6-0.5-1.9-1.3l-24.4-73.3c-0.3-1,0.2-2.1,1.2-2.5c1-0.3,2.1,0.2,2.5,1.2l24.4,73.3
			c0.3,1-0.2,2.1-1.2,2.5C248,267.9,247.8,267.9,247.5,267.9z"/>
	</g>
	<g class="st2">
		<path d="M181.4,245.2h-5.6l8.8-23.5h-12.8v-4.8h18.4v4.8L181.4,245.2z"/>
		<path d="M192.9,233.7v-16.8H210v4.8h-11.8v5.9c0.8-0.5,2.5-0.9,4-0.9c5.7,0,8.9,3.8,8.9,9.6v1.3c0,5-3.8,8.1-9.1,8.1
			c-6.2,0-9.2-3.3-9.6-8.5v0h5.3v0c0.2,2.1,1.7,3.6,4,3.6c2.7,0,4-1.5,4-3.7v-1.5c0-2.5-1.4-4.1-4-4.1c-1.8,0-3,0.8-3.6,2.2
			L192.9,233.7L192.9,233.7z"/>
		<path d="M215.9,238.9l3.1-3.4h3l-3.5,3.8l4,5.9h-2.9l-2.8-4.1l-0.9,1v3.1h-2.5V232h2.5V238.9z"/>
		<path d="M225.4,245.3c0.2,0.9,0.8,1.4,1.8,1.4c1.2,0,1.9-0.8,1.9-1.9v-1.1c-0.4,0.7-1.4,1.1-2.3,1.1c-2,0-3.9-1.4-3.9-4.2v-1
			c0-2.9,1.9-4.2,3.9-4.2c0.9,0,1.9,0.5,2.3,1.1v-0.8h2.5v8.9c0,2.7-1.6,4.5-4.4,4.5c-2.5,0-4-1.4-4.3-3.6L225.4,245.3L225.4,245.3z
			 M225.4,240.4c0,1.3,0.9,1.9,1.9,1.9c0.9,0,1.9-0.6,1.9-1.9v-0.8c0-1.3-0.9-1.9-1.9-1.9c-0.9,0-1.9,0.6-1.9,1.9V240.4z"/>
	</g>
	<g class="st2">
		<path d="M203.2,180.4h-9c-0.5,0-1-0.4-1-1v-10.9c0-0.5,0.4-1,1-1h9c0.5,0,1,0.4,1,1v10.9C204.2,180,203.7,180.4,203.2,180.4z
			 M195.2,178.5h7.1v-9h-7.1V178.5z"/>
	</g>
	<g class="st2">
		<path d="M198.7,117.2c-0.5,0-1-0.4-1-1V89.5c0-0.5,0.4-1,1-1c0.5,0,1,0.4,1,1v26.7C199.7,116.8,199.2,117.2,198.7,117.2z"/>
		<path d="M198.7,90.5c-3.8,0-6.9-3.1-6.9-6.9c0-3.8,3.1-6.9,6.9-6.9c3.8,0,6.9,3.1,6.9,6.9C205.6,87.4,202.5,90.5,198.7,90.5z
			 M198.7,78.7c-2.7,0-4.9,2.2-4.9,4.9c0,2.7,2.2,4.9,4.9,4.9c2.7,0,4.9-2.2,4.9-4.9C203.6,80.9,201.4,78.7,198.7,78.7z"/>
	</g>
	<g class="st2">
		<path d="M90.6,269.2c-5.5,0-15.9-3.3-15.9-15.9v-69.8c0-12.6,10.4-15.9,15.9-15.9c12.6,0,15.9,10.4,15.9,15.9v69.8
			C106.5,265.9,96.1,269.2,90.6,269.2z M90.6,171.6c-1.2,0-12,0.4-12,12v69.8c0,11.8,11.4,12,12,12c1.2,0,12-0.4,12-12v-69.8
			C102.6,182.3,102.2,171.6,90.6,171.6z"/>
	</g>
	<g class="st2">
		<path d="M305.4,268.8c-5.5,0-15.9-3.3-15.9-15.9v-69.8c0-12.6,10.4-15.9,15.9-15.9c12.6,0,15.9,10.4,15.9,15.9v69.8
			C321.3,265.5,310.9,268.8,305.4,268.8z M305.4,171.1c-1.2,0-12,0.4-12,12v69.8c0,11.8,11.4,12,12,12c1.2,0,12-0.4,12-12v-69.8
			C317.4,181.9,317,171.1,305.4,171.1z"/>
	</g>
	<g class="st2">
		<path d="M249.2,355.7c-12,0-21.4-16.2-21.4-36.9c0-20.7,9.4-36.9,21.4-36.9s21.4,16.2,21.4,36.9
			C270.7,339.5,261.3,355.7,249.2,355.7z M249.2,285.8c-9.5,0-17.5,15.1-17.5,33c0,17.9,8,33,17.5,33c9.5,0,17.5-15.1,17.5-33
			C266.8,300.9,258.7,285.8,249.2,285.8z"/>
	</g>
	<ellipse class="st2" cx="249.2" cy="318.8" rx="5.8" ry="10.4"/>
	<g class="st2">
		<path d="M166,355.7c-12,0-21.4-16.2-21.4-36.9c0-20.7,9.4-36.9,21.4-36.9c12,0,21.4,16.2,21.4,36.9
			C187.5,339.5,178,355.7,166,355.7z M166,285.8c-9.5,0-17.5,15.1-17.5,33c0,17.9,8,33,17.5,33c9.5,0,17.5-15.1,17.5-33
			C183.6,300.9,175.5,285.8,166,285.8z"/>
	</g>
	<ellipse class="st2" cx="166" cy="318.8" rx="5.8" ry="10.4"/>
	<g class="st2">
		<g>
			<path d="M249.2,355.7h-19.5c-12,0-21.4-16.2-21.4-36.9c0-20.7,9.4-36.9,21.4-36.9h19.5c1.1,0,2,0.9,2,2c0,1.1-0.9,2-2,2
				c-9.5,0-17.5,15.1-17.5,33c0,17.9,8,33,17.5,33c1.1,0,2,0.9,2,2C251.2,354.8,250.3,355.7,249.2,355.7z M229.8,285.8
				c-9.5,0-17.5,15.1-17.5,33c0,17.9,8,33,17.5,33h9.7c-7-6-11.7-18.4-11.7-33c0-14.6,4.7-27,11.7-33L229.8,285.8L229.8,285.8z"/>
		</g>
		<g>
			<polygon points="249.2,353.8 249.3,353.8 249.3,353.8 			"/>
			<path d="M249.3,355.7L249.3,355.7c-1.1,0-2-0.9-2-2c0-1,0.7-1.8,1.6-1.9c1.2-0.3,2.3,0.7,2.3,1.9
				C251.2,354.8,250.4,355.7,249.3,355.7z"/>
		</g>
	</g>
	<g class="st2">
		<g>
			<path d="M166,355.7h-19.5c-12,0-21.4-16.2-21.4-36.9c0-20.7,9.4-36.9,21.4-36.9H166c1.1,0,2,0.9,2,2c0,1.1-0.9,2-2,2
				c-9.5,0-17.5,15.1-17.5,33c0,17.9,8,33,17.5,33c1.1,0,2,0.9,2,2C168,354.8,167.1,355.7,166,355.7z M146.6,285.8
				c-9.5,0-17.5,15.1-17.5,33c0,17.9,8,33,17.5,33h9.7c-7-6-11.7-18.4-11.7-33c0-14.6,4.7-27,11.7-33L146.6,285.8L146.6,285.8z"/>
		</g>
		<g>
			<polygon points="166,353.8 166.1,353.8 166.1,353.8 			"/>
			<path d="M166.1,355.7L166.1,355.7c-1.1,0-2-0.9-2-2c0-1,0.7-1.8,1.7-1.9c1.3-0.2,2.3,0.7,2.3,1.9
				C168,354.8,167.2,355.7,166.1,355.7z"/>
		</g>
	</g>
	<g class="st2">
		<path d="M203.2,177.4c-0.2,0-0.4-0.1-0.6-0.2c-0.2-0.2-0.4-0.5-0.4-0.8v-6.6c0-0.4,0.3-0.8,0.7-0.9c7.5-1.9,12.8-8.7,12.8-16.4
			c0-9.4-7.6-17-17-17s-17,7.6-17,17c0,7.7,5.2,14.5,12.8,16.4c0.4,0.1,0.7,0.5,0.7,0.9v6.6c0,0.3-0.1,0.6-0.4,0.8
			c-0.2,0.2-0.5,0.3-0.8,0.2c-12-2.2-20.7-12.7-20.7-24.9c0-14,11.4-25.4,25.4-25.4c14,0,25.4,11.4,25.4,25.4
			c0,12.2-8.7,22.7-20.7,24.9C203.3,177.4,203.3,177.4,203.2,177.4z M204.2,170.5v4.7c10.5-2.5,18-11.9,18-22.8
			c0-12.9-10.5-23.5-23.5-23.5c-12.9,0-23.5,10.5-23.5,23.5c0,10.9,7.5,20.3,18,22.8v-4.7c-8-2.4-13.5-9.8-13.5-18.1
			c0-10.5,8.5-19,19-19s19,8.5,19,19C217.7,160.8,212.2,168.1,204.2,170.5z"/>
	</g>
</g>
<g class="st1">
	<g class="st2">
		<path d="M214,193.6v23.8h3.9v2.6H214v10.5h-2.8V220h-17.3v-2.6l17.3-23.8H214z M211.2,217.4v-19.2l-14.1,19.2H211.2z"/>
		<path d="M226.5,210.5c1.7-2,4.5-3,7.2-3c4.9,0,10.4,2.7,10.4,10.7v2.3c0,7.9-5.5,10.7-10.4,10.7c-4.9,0-10.4-2.7-10.4-10.7V220
			h2.8v0.4c0,4.9,3.2,8,7.6,8c4.4,0,7.6-3.1,7.6-8v-2.3c0-4.9-3.2-8-7.6-8c-2.9,0-5.4,1.4-6.7,3.7h-3.3v-20.3h19v2.7h-16.2
			L226.5,210.5L226.5,210.5z"/>
		<path d="M257.9,193.4c4.5,0,8.2,3.7,8.2,8.2c0,4.5-3.7,8.2-8.2,8.2c-4.5,0-8.2-3.7-8.2-8.2C249.7,197,253.4,193.4,257.9,193.4z
			 M257.9,207.5c3.3,0,5.9-2.6,5.9-5.9c0-3.3-2.6-5.9-5.9-5.9c-3.3,0-5.9,2.6-5.9,5.9C252.1,204.9,254.6,207.5,257.9,207.5z"/>
	</g>
	<path class="st2" d="M282.9,260.3H109.4c-0.8,0-1.5-0.5-1.8-1.2c-0.3-0.7-0.1-1.6,0.4-2.1l122.7-122.7c0.8-0.8,2-0.8,2.8,0
		c0.8,0.8,0.8,2,0,2.8L114.1,256.4h168.8c1.1,0,2,0.9,2,2C284.9,259.5,284,260.3,282.9,260.3z"/>
	<path class="st2" d="M142,259.4c-0.5,0-1-0.4-1-1c0-8.4-3.3-16.4-9.2-22.3c-0.4-0.4-0.4-1,0-1.4s1-0.4,1.4,0
		c6.3,6.3,9.8,14.7,9.8,23.7C142.9,258.9,142.5,259.4,142,259.4z"/>
	<g class="st2">
		<path d="M199.8,126.5c-0.5,0-1-0.4-1-1V98.8c0-0.5,0.4-1,1-1c0.5,0,1,0.4,1,1v26.7C200.7,126,200.3,126.5,199.8,126.5z"/>
		<path d="M199.8,99.8c-3.8,0-6.9-3.1-6.9-6.9c0-3.8,3.1-6.9,6.9-6.9c3.8,0,6.9,3.1,6.9,6.9C206.6,96.7,203.5,99.8,199.8,99.8z
			 M199.8,88c-2.7,0-4.9,2.2-4.9,4.9c0,2.7,2.2,4.9,4.9,4.9c2.7,0,4.9-2.2,4.9-4.9C204.7,90.2,202.5,88,199.8,88z"/>
	</g>
	<g class="st2">
		<path d="M84.2,265.4c-5.5,0-15.9-3.3-15.9-15.9v-69.7c0-12.6,10.4-15.9,15.9-15.9c12.6,0,15.9,10.4,15.9,15.9v69.7
			C100.1,262.1,89.7,265.4,84.2,265.4z M84.2,167.7c-1.2,0-12,0.4-12,12v69.7c0,11.8,11.4,12,12,12c1.2,0,12-0.4,12-12v-69.7
			C96.2,178.5,95.8,167.7,84.2,167.7z"/>
	</g>
	<g class="st2">
		<path d="M311.8,265.4c-5.5,0-15.9-3.3-15.9-15.9v-69.7c0-12.6,10.4-15.9,15.9-15.9c12.6,0,15.9,10.4,15.9,15.9v69.7
			C327.7,262.1,317.3,265.4,311.8,265.4z M311.8,167.7c-1.2,0-12,0.4-12,12v69.7c0,11.8,11.4,12,12,12c1.2,0,12-0.4,12-12v-69.7
			C323.8,178.5,323.4,167.7,311.8,167.7z"/>
	</g>
	<g class="st2">
		<path d="M251.1,346.4c-12,0-21.4-16.2-21.4-36.9c0-20.7,9.4-36.9,21.4-36.9s21.4,16.2,21.4,36.9
			C272.5,330.2,263.1,346.4,251.1,346.4z M251.1,276.6c-9.5,0-17.5,15.1-17.5,33c0,17.9,8,33,17.5,33s17.5-15.1,17.5-33
			C268.6,291.7,260.6,276.6,251.1,276.6z"/>
	</g>
	<ellipse class="st2" cx="251.1" cy="309.5" rx="5.8" ry="10.4"/>
	<g class="st2">
		<path d="M167.9,346.4c-12,0-21.4-16.2-21.4-36.9c0-20.7,9.4-36.9,21.4-36.9c12,0,21.4,16.2,21.4,36.9
			C189.3,330.2,179.9,346.4,167.9,346.4z M167.9,276.6c-9.5,0-17.5,15.1-17.5,33c0,17.9,8,33,17.5,33c9.5,0,17.5-15.1,17.5-33
			C185.4,291.7,177.4,276.6,167.9,276.6z"/>
	</g>
	<ellipse class="st2" cx="167.9" cy="309.5" rx="5.8" ry="10.4"/>
	<g class="st2">
		<g>
			<path d="M251.1,346.4h-19.5c-12,0-21.4-16.2-21.4-36.9c0-20.7,9.4-36.9,21.4-36.9h19.5c1.1,0,2,0.9,2,2c0,1.1-0.9,2-2,2
				c-9.5,0-17.5,15.1-17.5,33c0,17.9,8,33,17.5,33c1.1,0,2,0.9,2,2C253.1,345.6,252.2,346.4,251.1,346.4z M231.6,276.6
				c-9.5,0-17.5,15.1-17.5,33c0,17.9,8,33,17.5,33h9.7c-7-6-11.7-18.4-11.7-33c0-14.6,4.7-27,11.7-33L231.6,276.6L231.6,276.6z"/>
		</g>
		<g>
			<polygon points="251.1,344.5 251.1,344.5 251.1,344.5 			"/>
			<path d="M251.1,346.4L251.1,346.4c-1.1,0-2-0.9-2-2c0-1.1,0.9-2,2-2s2,0.9,2,2C253.1,345.6,252.2,346.4,251.1,346.4z"/>
		</g>
	</g>
	<g class="st2">
		<g>
			<polygon points="167.9,344.5 167.9,344.5 167.9,344.5 			"/>
			<path d="M167.9,346.4L167.9,346.4c-1.1,0-2-0.9-2-2c0-1.1,0.9-2,2-2s2,0.9,2,2C169.9,345.6,169,346.4,167.9,346.4z"/>
		</g>
		<g>
			<path d="M167.9,346.4h-19.5c-12,0-21.4-16.2-21.4-36.9c0-20.7,9.4-36.9,21.4-36.9h19.5c1.1,0,2,0.9,2,2c0,1.1-0.9,2-2,2
				c-9.5,0-17.5,15.1-17.5,33c0,17.9,8,33,17.5,33c1.1,0,2,0.9,2,2C169.8,345.6,169,346.4,167.9,346.4z M148.4,276.6
				c-9.5,0-17.5,15.1-17.5,33c0,17.9,8,33,17.5,33h9.7c-7-6-11.7-18.4-11.7-33c0-14.6,4.7-27,11.7-33L148.4,276.6L148.4,276.6z"/>
		</g>
	</g>
</g>
<g class="st1">
	<path class="st2" d="M286.6,261H113.1c-1.1,0-2-0.9-2-2c0-1.1,0.9-2,2-2h168.8L162.5,137.7c-0.8-0.8-0.8-2,0-2.8
		c0.8-0.8,2-0.8,2.8,0L288,257.6c0.6,0.6,0.7,1.4,0.4,2.1C288.1,260.5,287.4,261,286.6,261z"/>
	<path class="st2" d="M254,260c-0.5,0-1-0.4-1-1c0-8.9,3.5-17.4,9.8-23.7c0.4-0.4,1-0.4,1.4,0c0.4,0.4,0.4,1,0,1.4
		c-6,6-9.2,13.9-9.2,22.3C255,259.6,254.6,260,254,260z"/>
	<g class="st2">
		<path d="M196.2,127.1c-0.5,0-1-0.4-1-1V99.4c0-0.5,0.4-1,1-1c0.5,0,1,0.4,1,1v26.7C197.2,126.7,196.8,127.1,196.2,127.1z"/>
		<path d="M196.2,100.4c-3.8,0-6.9-3.1-6.9-6.9c0-3.8,3.1-6.9,6.9-6.9c3.8,0,6.9,3.1,6.9,6.9C203.1,97.3,200,100.4,196.2,100.4z
			 M196.2,88.6c-2.7,0-4.9,2.2-4.9,4.9c0,2.7,2.2,4.9,4.9,4.9c2.7,0,4.9-2.2,4.9-4.9C201.2,90.8,199,88.6,196.2,88.6z"/>
	</g>
	<g class="st2">
		<path d="M311.8,266c-5.5,0-15.9-3.3-15.9-15.9v-69.8c0-5.5,3.3-15.9,15.9-15.9c5.5,0,15.9,3.3,15.9,15.9v69.8
			C327.7,262.7,317.3,266,311.8,266z M311.8,168.4c-11.9,0-12,11.5-12,12v69.8c0,11.8,11.4,12,12,12c1.2,0,12-0.4,12-12v-69.8
			C323.8,168.5,312.3,168.4,311.8,168.4z"/>
	</g>
	<g class="st2">
		<path d="M84.2,266c-5.5,0-15.9-3.3-15.9-15.9v-69.8c0-5.5,3.3-15.9,15.9-15.9c5.5,0,15.9,3.3,15.9,15.9v69.8
			C100.1,262.7,89.7,266,84.2,266z M84.2,168.4c-11.9,0-12,11.5-12,12v69.8c0,11.6,10.7,12,12,12c1.3,0,12-0.4,12-12v-69.8
			C96.2,168.5,84.7,168.4,84.2,168.4z"/>
	</g>
	<g class="st2">
		<path d="M244.1,345.8c-12,0-21.4-16.2-21.4-36.9c0-20.7,9.4-36.9,21.4-36.9s21.4,16.2,21.4,36.9
			C265.5,329.6,256.1,345.8,244.1,345.8z M244.1,275.9c-9.5,0-17.5,15.1-17.5,33c0,17.9,8,33,17.5,33c9.5,0,17.5-15.1,17.5-33
			C261.6,291,253.6,275.9,244.1,275.9z"/>
	</g>
	<ellipse class="st2" cx="244.1" cy="308.9" rx="5.8" ry="10.4"/>
	<g class="st2">
		<path d="M160.9,345.8c-12,0-21.4-16.2-21.4-36.9c0-20.7,9.4-36.9,21.4-36.9c12,0,21.4,16.2,21.4,36.9
			C182.3,329.6,172.9,345.8,160.9,345.8z M160.9,275.9c-9.5,0-17.5,15.1-17.5,33c0,17.9,8,33,17.5,33c9.5,0,17.5-15.1,17.5-33
			C178.4,291,170.4,275.9,160.9,275.9z"/>
	</g>
	<ellipse class="st2" cx="160.9" cy="308.9" rx="5.8" ry="10.4"/>
	<g class="st2">
		<path d="M150.7,194.4v23.8h3.9v2.6h-3.9v10.5h-2.8v-10.5h-17.3v-2.6l17.3-23.8H150.7z M147.9,218.2v-19.2l-14.1,19.2H147.9z"/>
		<path d="M163.2,211.3c1.7-2,4.5-3,7.2-3c4.9,0,10.4,2.7,10.4,10.7v2.3c0,7.9-5.5,10.7-10.4,10.7c-4.9,0-10.4-2.7-10.4-10.7v-0.4
			h2.8v0.4c0,4.9,3.2,8,7.6,8c4.4,0,7.6-3.1,7.6-8v-2.3c0-4.9-3.2-8-7.6-8c-3,0-5.4,1.4-6.7,3.7h-3.3v-20.3h19v2.7h-16.2
			L163.2,211.3L163.2,211.3z"/>
		<path d="M194.6,194.1c4.5,0,8.2,3.7,8.2,8.2c0,4.5-3.7,8.2-8.2,8.2c-4.5,0-8.2-3.7-8.2-8.2C186.3,197.8,190,194.1,194.6,194.1z
			 M194.6,208.3c3.3,0,5.9-2.6,5.9-5.9c0-3.3-2.6-5.9-5.9-5.9c-3.3,0-5.8,2.6-5.8,5.9C188.7,205.6,191.3,208.3,194.6,208.3z"/>
	</g>
	<g class="st2">
		<g>
			<path d="M244.1,345.8h-19.5c-12,0-21.4-16.2-21.4-36.9c0-20.7,9.4-36.9,21.4-36.9h19.5c1.1,0,2,0.9,2,2c0,1.1-0.9,2-2,2
				c-9.5,0-17.5,15.1-17.5,33c0,17.9,8,33,17.5,33c1.1,0,2,0.9,2,2C246,344.9,245.2,345.8,244.1,345.8z M224.6,275.9
				c-9.5,0-17.5,15.1-17.5,33c0,17.9,8,33,17.5,33h9.7c-7-6-11.7-18.4-11.7-33c0-14.6,4.7-27,11.7-33L224.6,275.9L224.6,275.9z"/>
		</g>
		<g>
			<polygon points="244.1,343.8 244.1,343.8 244.1,343.8 			"/>
			<path d="M244.1,345.8L244.1,345.8c-1.1,0-2-0.9-2-2c0-1.1,0.9-2,2-2c1.1,0,2,0.9,2,2C246.1,344.9,245.2,345.8,244.1,345.8z"/>
		</g>
	</g>
	<g class="st2">
		<g>
			<polygon points="160.9,343.8 160.9,343.8 160.9,343.8 			"/>
			<path d="M160.9,345.8L160.9,345.8c-1.1,0-2-0.9-2-2c0-1.1,0.9-2,2-2s2,0.9,2,2C162.9,344.9,162,345.8,160.9,345.8z"/>
		</g>
		<g>
			<path d="M160.9,345.8h-19.5c-12,0-21.4-16.2-21.4-36.9c0-20.7,9.4-36.9,21.4-36.9h19.5c1.1,0,2,0.9,2,2c0,1.1-0.9,2-2,2
				c-9.5,0-17.5,15.1-17.5,33c0,17.9,8,33,17.5,33c1.1,0,2,0.9,2,2C162.8,344.9,162,345.8,160.9,345.8z M141.4,275.9
				c-9.5,0-17.5,15.1-17.5,33c0,17.9,8,33,17.5,33h9.7c-7-6-11.7-18.4-11.7-33c0-14.6,4.7-27,11.7-33L141.4,275.9L141.4,275.9z"/>
		</g>
	</g>
</g>
<g class="st1">
	<path class="st2" d="M198.9,334.1h-1.8c-16.7,0-30.2-13.6-30.2-30.2v-1.8c0-7.7,2.9-15,8.1-20.6V121.4c0-12.7,10.3-23,23-23
		c12.7,0,23,10.3,23,23v160.1c5.2,5.6,8.1,12.9,8.1,20.6v1.8C229.1,320.5,215.6,334.1,198.9,334.1z M198,102.3
		c-10.5,0-19.1,8.6-19.1,19.1v160.8c0,0.5-0.2,1-0.6,1.4c-4.9,5-7.5,11.5-7.5,18.4v1.8c0,14.5,11.8,26.3,26.3,26.3h1.8
		c14.5,0,26.3-11.8,26.3-26.3v-1.8c0-6.9-2.7-13.5-7.5-18.4c-0.4-0.4-0.6-0.9-0.6-1.4V121.4C217.1,110.9,208.5,102.3,198,102.3z"/>
	<path class="st2" d="M219.1,253.2h-40.5c-1.1,0-2-0.9-2-2s0.9-2,2-2h40.5c1.1,0,2,0.9,2,2S220.2,253.2,219.1,253.2z"/>
	<path class="st2" d="M217.4,272.7h-14.2c-0.5,0-1-0.4-1-1s0.4-1,1-1h14.2c0.5,0,1,0.4,1,1S217.9,272.7,217.4,272.7z"/>
	<path class="st2" d="M217.4,252.2H195c-0.5,0-1-0.4-1-1c0-0.5,0.4-1,1-1h22.4c0.5,0,1,0.4,1,1C218.3,251.8,217.9,252.2,217.4,252.2
		z"/>
	<path class="st2" d="M217.4,231.8h-14.2c-0.5,0-1-0.4-1-1c0-0.5,0.4-1,1-1h14.2c0.5,0,1,0.4,1,1
		C218.3,231.4,217.9,231.8,217.4,231.8z"/>
	<path class="st2" d="M217.4,209.9h-22.7c-0.5,0-1-0.4-1-1c0-0.5,0.4-1,1-1h22.7c0.5,0,1,0.4,1,1
		C218.3,209.5,217.9,209.9,217.4,209.9z"/>
	<path class="st2" d="M217.4,187.2h-14.4c-0.5,0-1-0.4-1-1c0-0.5,0.4-1,1-1h14.4c0.5,0,1,0.4,1,1
		C218.3,186.8,217.9,187.2,217.4,187.2z"/>
	<path class="st2" d="M217.4,164.5h-22.7c-0.5,0-1-0.4-1-1c0-0.5,0.4-1,1-1h22.7c0.5,0,1,0.4,1,1
		C218.3,164.1,217.9,164.5,217.4,164.5z"/>
	<path class="st2" d="M219.1,144.1h-16.7c-0.5,0-1-0.4-1-1c0-0.5,0.4-1,1-1h16.7c0.5,0,1,0.4,1,1
		C220.1,143.7,219.6,144.1,219.1,144.1z"/>
	<path class="st2" d="M217.4,122.2h-22.7c-0.5,0-1-0.4-1-1s0.4-1,1-1h22.7c0.5,0,1,0.4,1,1S217.9,122.2,217.4,122.2z"/>
</g>
<g class="st1">
	<g class="st2">
		<path d="M135.1,165.2c-1,0-1.9-0.8-2-1.8c-0.1-1,0.6-1.8,1.6-2c0.5-0.3,4.6-3.9,4.6-28.9s-4.1-28.6-4.6-28.9
			c-0.2,0-0.4-0.1-0.6-0.2c-0.5-0.2-0.8-0.7-1-1.2c-0.1-0.2-0.1-0.4-0.1-0.7c0.1-1,0.9-1.8,2-1.8l0,0c0.1,0,0.1,0,0.2,0l0,0l0,0
			c0,0,0.1,0,0.1,0l154,18.5c0.2,0,7.9,0.2,7.9,14.3c0,14.1-7.8,14.3-8.1,14.3l-153.8,18.5c0,0,0,0,0,0
			C135.3,165.2,135.2,165.2,135.1,165.2z M139.7,104.2c1.9,4.3,3.5,12.6,3.5,28.3s-1.6,24-3.5,28.3l149.2-17.9
			c1.6-0.1,4.4-2.4,4.4-10.4c0-8-2.8-10.3-4.3-10.4L139.7,104.2z"/>
	</g>
	<g class="st2">
		<path d="M233.7,151.9c-0.3,0-0.5-0.1-0.7-0.3c-0.4-0.4-0.4-1,0-1.4c0.1-0.1,5.9-6.1,5.9-17.8s-5.8-17.7-5.9-17.8
			c-0.4-0.4-0.4-1,0-1.4c0.4-0.4,1-0.4,1.4,0c0.3,0.3,6.4,6.6,6.4,19.2s-6.2,18.9-6.4,19.2C234.2,151.8,234,151.9,233.7,151.9z"/>
	</g>
	<g class="st2">
		<path d="M184.4,158.1c-0.3,0-0.5-0.1-0.7-0.3c-0.4-0.4-0.4-1,0-1.4c0.1-0.1,5.9-6.2,5.9-24c0-17.8-5.8-23.9-5.9-24
			c-0.4-0.4-0.4-1,0-1.4c0.4-0.4,1-0.4,1.4,0c0.3,0.3,6.4,6.7,6.4,25.3s-6.2,25.1-6.4,25.3C184.9,158,184.7,158.1,184.4,158.1z"/>
	</g>
	<g class="st2">
		<path d="M135.1,165.2c-0.5,0-1-0.2-1.4-0.6l-30.8-30.8c-0.8-0.8-0.8-2,0-2.8l30.8-30.8c0.8-0.8,2-0.8,2.8,0c0.8,0.8,0.8,2,0,2.8
			l-29.4,29.4l29.4,29.4c0.8,0.8,0.8,2,0,2.8C136.1,165.1,135.6,165.2,135.1,165.2z"/>
	</g>
	<path class="st2" d="M103.7,329.6c0,1.7-1.1,3.1-2.5,3.1l0,0c-1.4,0-2.5-1.4-2.5-3.1V104.8c0-1.7,1.1-3.1,2.5-3.1l0,0
		c1.4,0,2.5,1.4,2.5,3.1V329.6z"/>
</g>
<g class="st1">
	<g class="st2">
		<g>
			<path d="M283.1,244.4H113.2c-6.6,0-11.9-5.4-11.9-11.9v-98.8c0-6.6,5.3-11.9,11.9-11.9h169.9c6.6,0,11.9,5.3,11.9,11.9v98.8
				C295,239.1,289.7,244.4,283.1,244.4z M113.2,125.7c-4.4,0-8,3.6-8,8v98.8c0,4.4,3.6,8,8,8h169.9c4.4,0,8-3.6,8-8v-98.8
				c0-4.4-3.6-8-8-8H113.2z"/>
		</g>
		<path d="M284.2,234.1h-172c-0.5,0-1-0.4-1-1v-99.9c0-0.5,0.4-1,1-1h172c0.5,0,1,0.4,1,1v99.9C285.2,233.6,284.7,234.1,284.2,234.1
			z M113.1,232.1h170.1v-98H113.1L113.1,232.1L113.1,232.1z"/>
	</g>
	<g class="st2">
		<path d="M316.6,302.1H79.4c-6.3,0-10.7-1.5-12-4.1c-0.4-0.8-0.9-2.5,0.6-4.4l34.6-46.2c2.6-3.5,9.2-6.2,15.1-6.2h160.7
			c5.8,0,12.5,2.7,15.1,6.2l34.6,46.2c1.4,1.9,1,3.6,0.6,4.4C326.7,301.7,319.6,302.1,316.6,302.1z M117.6,245.1
			c-4.6,0-10,2.1-11.9,4.6l-34.6,46.2c-0.1,0.2-0.2,0.3-0.2,0.4c0.2,0.5,2.6,1.9,8.5,1.9h237.2c5.9,0,8.3-1.5,8.5-2l0,0
			c0,0-0.1-0.1-0.2-0.3l-34.6-46.2c-1.9-2.5-7.3-4.6-11.9-4.6L117.6,245.1L117.6,245.1z"/>
	</g>
	<g class="st2">
		<path d="M220.8,220.9h-45.2c-0.5,0-1-0.4-1-1c0-0.5,0.4-1,1-1h45.2c0.5,0,1,0.4,1,1C221.8,220.5,221.3,220.9,220.8,220.9z"/>
		<g>
			<path d="M197.8,214.1c-0.5,0-1-0.4-1-1v-16.9c0-0.5,0.4-1,1-1s1,0.4,1,1v16.9C198.8,213.6,198.3,214.1,197.8,214.1z"/>
			<path d="M197.8,214.1c-0.3,0-0.5-0.1-0.7-0.3l-5.6-5.6c-0.4-0.4-0.4-1,0-1.4c0.4-0.4,1-0.4,1.4,0l4.9,4.9l5-4.9
				c0.4-0.4,1-0.4,1.4,0c0.4,0.4,0.4,1,0,1.4l-5.6,5.6C198.3,214,198,214.1,197.8,214.1z"/>
		</g>
	</g>
	<path class="st2" d="M305.2,281.4H92c-0.4,0-0.7-0.2-0.9-0.5c-0.2-0.3-0.1-0.7,0.1-1l19.4-28.5c0.2-0.3,0.5-0.4,0.8-0.4h174.3
		c0.3,0,0.6,0.2,0.8,0.4l19.4,28.5c0.2,0.3,0.2,0.7,0.1,1C305.9,281.2,305.5,281.4,305.2,281.4z M93.9,279.5h209.4l-18-26.6H112
		L93.9,279.5z"/>
	<g class="st2">
		<path d="M212.3,192.8c-0.5,0-1.1-0.2-1.5-0.7c-0.2-0.2-4.5-4.9-13-4.9c-8.6,0-12.9,4.7-13,4.9c-0.7,0.8-1.9,0.9-2.8,0.2
			c-0.8-0.7-0.9-1.9-0.2-2.7c0.2-0.3,5.5-6.3,16-6.3c10.4,0,15.8,6,16,6.3c0.7,0.8,0.6,2-0.2,2.8
			C213.2,192.7,212.8,192.8,212.3,192.8z"/>
		<path d="M218.4,185.6c-0.5,0-1.1-0.2-1.5-0.7c-0.2-0.2-6.5-6.9-19.1-6.9s-19,6.8-19.1,7c-0.7,0.8-2,0.9-2.8,0.2
			c-0.8-0.7-0.9-1.9-0.2-2.8c0.3-0.3,7.6-8.3,22-8.3c14.4,0,21.7,7.9,22,8.3c0.7,0.8,0.6,2-0.2,2.8
			C219.3,185.4,218.8,185.6,218.4,185.6z"/>
		<path d="M224.4,178.3c-0.5,0-1.1-0.2-1.4-0.6c-0.1-0.2-8.6-9-25.2-9s-25,8.8-25.2,9c-0.7,0.8-2,0.9-2.8,0.1
			c-0.8-0.7-0.9-2-0.1-2.8c0.4-0.4,9.7-10.3,28.1-10.3s27.7,9.8,28.1,10.3c0.7,0.8,0.7,2-0.1,2.8
			C225.4,178.1,224.9,178.3,224.4,178.3z"/>
		<path d="M230.5,171c-0.5,0-1-0.2-1.4-0.6c-0.1-0.1-10.7-11-31.2-11s-31.1,10.9-31.2,11c-0.7,0.8-2,0.8-2.8,0.1
			c-0.8-0.7-0.8-2-0.1-2.8c0.5-0.5,11.7-12.3,34.1-12.3c22.4,0,33.6,11.8,34.1,12.3c0.7,0.8,0.7,2-0.1,2.8
			C231.4,170.9,231,171,230.5,171z"/>
		<path d="M236.5,163.8c-0.5,0-1-0.2-1.4-0.6c-0.1-0.1-12.7-13-37.3-13s-37.2,12.9-37.3,13c-0.7,0.8-2,0.8-2.8,0.1
			c-0.8-0.7-0.8-2-0.1-2.8c0.6-0.6,13.8-14.3,40.1-14.3s39.6,13.7,40.1,14.3c0.7,0.8,0.7,2-0.1,2.8
			C237.5,163.6,237,163.8,236.5,163.8z"/>
	</g>
	<g class="st2">
		<path d="M316.6,310.7H79.4c-3.2,0-8.8-0.4-11.3-3.1c-0.8-0.9-1.2-2-1.1-3.2l0-7.8c0-0.2,0-0.4,0-0.6v-0.1c0-1.7,2.4-2.5,3.5-1.2
			c0.4,0.4,0.5,1,0.4,1.6v0.1c0.3,0.5,2.7,1.9,8.5,1.9h237.2c5.6,0,8.1-1.4,8.4-1.9v-0.2c-0.1-0.5,0.1-1.1,0.4-1.5
			c1-1.3,3.4-0.5,3.5,1.2c0,0.3,0,0.6,0,0.9v7.9c0.1,0.9-0.2,2-1.1,2.9C325.5,310.3,319.8,310.7,316.6,310.7z M70.9,300.8v3.8
			c0.2,0.7,2.6,2.2,8.5,2.2h237.2c5.8,0,8.3-1.5,8.5-2l0-4c-2.1,0.8-5,1.3-8.4,1.3H79.4C75.9,302.1,73,301.7,70.9,300.8z"/>
	</g>
</g>
<g>
	<g>
		<g>
			<path d="M283.1,244.4H113.2c-6.6,0-11.9-5.4-11.9-11.9v-98.8c0-6.6,5.3-11.9,11.9-11.9h169.9c6.6,0,11.9,5.3,11.9,11.9v98.8
				C295,239.1,289.7,244.4,283.1,244.4z M113.2,125.7c-4.4,0-8,3.6-8,8v98.8c0,4.4,3.6,8,8,8h169.9c4.4,0,8-3.6,8-8v-98.8
				c0-4.4-3.6-8-8-8H113.2z"/>
		</g>
		<path d="M284.2,234.1h-172c-0.5,0-1-0.4-1-1v-99.9c0-0.5,0.4-1,1-1h172c0.5,0,1,0.4,1,1v99.9C285.2,233.6,284.7,234.1,284.2,234.1
			z M113.1,232.1h170.1v-98H113.1L113.1,232.1L113.1,232.1z"/>
	</g>
	<g>
		<path d="M316.6,302.1H79.4c-6.3,0-10.7-1.5-12-4.1c-0.4-0.8-0.9-2.5,0.6-4.4l34.6-46.2c2.6-3.5,9.2-6.2,15.1-6.2h160.7
			c5.8,0,12.5,2.7,15.1,6.2l34.6,46.2c1.4,1.9,1,3.6,0.6,4.4C326.7,301.7,319.6,302.1,316.6,302.1z M117.6,245.1
			c-4.6,0-10,2.1-11.9,4.6l-34.6,46.2c-0.1,0.2-0.2,0.3-0.2,0.4c0.2,0.5,2.6,1.9,8.5,1.9h237.2c5.9,0,8.3-1.5,8.5-2l0,0
			c0,0-0.1-0.1-0.2-0.3l-34.6-46.2c-1.9-2.5-7.3-4.6-11.9-4.6L117.6,245.1L117.6,245.1z"/>
	</g>
	<path d="M220.8,220.9h-45.2c-0.5,0-1-0.4-1-1c0-0.5,0.4-1,1-1h45.2c0.5,0,1,0.4,1,1C221.8,220.5,221.3,220.9,220.8,220.9z"/>
	<g>
		<path d="M197.8,195.2c0.5,0,1,0.4,1,1v16.9c0,0.5-0.4,1-1,1c-0.5,0-1-0.4-1-1v-16.9C196.8,195.6,197.3,195.2,197.8,195.2z"/>
		<path d="M197.8,195.2c0.3,0,0.5,0.1,0.7,0.3l5.6,5.6c0.4,0.4,0.4,1,0,1.4s-1,0.4-1.4,0l-4.9-4.9l-5,4.9c-0.4,0.4-1,0.4-1.4,0
			s-0.4-1,0-1.4l5.6-5.6C197.3,195.3,197.6,195.2,197.8,195.2z"/>
	</g>
	<path d="M305.2,281.4H92c-0.4,0-0.7-0.2-0.9-0.5c-0.2-0.3-0.1-0.7,0.1-1l19.4-28.5c0.2-0.3,0.5-0.4,0.8-0.4h174.3
		c0.3,0,0.6,0.2,0.8,0.4l19.4,28.5c0.2,0.3,0.2,0.7,0.1,1C305.9,281.2,305.5,281.4,305.2,281.4z M93.9,279.5h209.4l-18-26.6H112
		L93.9,279.5z"/>
	<g>
		<path d="M212.3,192.8c-0.5,0-1.1-0.2-1.5-0.7c-0.2-0.2-4.5-4.9-13-4.9c-8.6,0-12.9,4.7-13,4.9c-0.7,0.8-1.9,0.9-2.8,0.2
			c-0.8-0.7-0.9-1.9-0.2-2.7c0.2-0.3,5.5-6.3,16-6.3c10.4,0,15.8,6,16,6.3c0.7,0.8,0.6,2-0.2,2.8
			C213.2,192.7,212.8,192.8,212.3,192.8z"/>
		<path d="M218.4,185.6c-0.5,0-1.1-0.2-1.5-0.7c-0.2-0.2-6.5-6.9-19.1-6.9s-19,6.8-19.1,7c-0.7,0.8-2,0.9-2.8,0.2
			c-0.8-0.7-0.9-1.9-0.2-2.8c0.3-0.3,7.6-8.3,22-8.3c14.4,0,21.7,7.9,22,8.3c0.7,0.8,0.6,2-0.2,2.8
			C219.3,185.4,218.8,185.6,218.4,185.6z"/>
		<path d="M224.4,178.3c-0.5,0-1.1-0.2-1.4-0.6c-0.1-0.2-8.6-9-25.2-9s-25,8.8-25.2,9c-0.7,0.8-2,0.9-2.8,0.1
			c-0.8-0.7-0.9-2-0.1-2.8c0.4-0.4,9.7-10.3,28.1-10.3s27.7,9.8,28.1,10.3c0.7,0.8,0.7,2-0.1,2.8
			C225.4,178.1,224.9,178.3,224.4,178.3z"/>
		<path d="M230.5,171c-0.5,0-1-0.2-1.4-0.6c-0.1-0.1-10.7-11-31.2-11s-31.1,10.9-31.2,11c-0.7,0.8-2,0.8-2.8,0.1
			c-0.8-0.7-0.8-2-0.1-2.8c0.5-0.5,11.7-12.3,34.1-12.3c22.4,0,33.6,11.8,34.1,12.3c0.7,0.8,0.7,2-0.1,2.8
			C231.4,170.9,231,171,230.5,171z"/>
		<path d="M236.5,163.8c-0.5,0-1-0.2-1.4-0.6c-0.1-0.1-12.7-13-37.3-13s-37.2,12.9-37.3,13c-0.7,0.8-2,0.8-2.8,0.1
			c-0.8-0.7-0.8-2-0.1-2.8c0.6-0.6,13.8-14.3,40.1-14.3s39.6,13.7,40.1,14.3c0.7,0.8,0.7,2-0.1,2.8
			C237.5,163.6,237,163.8,236.5,163.8z"/>
	</g>
	<g>
		<path d="M316.6,310.7H79.4c-3.2,0-8.8-0.4-11.3-3.1c-0.8-0.9-1.2-2-1.1-3.2l0-7.8c0-0.2,0-0.4,0-0.6v-0.1c0-1.7,2.4-2.5,3.5-1.2
			c0.4,0.4,0.5,1,0.4,1.6v0.1c0.3,0.5,2.7,1.9,8.5,1.9h237.2c5.6,0,8.1-1.4,8.4-1.9v-0.2c-0.1-0.5,0.1-1.1,0.4-1.5
			c1-1.3,3.4-0.5,3.5,1.2c0,0.3,0,0.6,0,0.9v7.9c0.1,0.9-0.2,2-1.1,2.9C325.5,310.3,319.8,310.7,316.6,310.7z M70.9,300.8v3.8
			c0.2,0.7,2.6,2.2,8.5,2.2h237.2c5.8,0,8.3-1.5,8.5-2l0-4c-2.1,0.8-5,1.3-8.4,1.3H79.4C75.9,302.1,73,301.7,70.9,300.8z"/>
	</g>
</g>
</svg>
